<svg width="126" height="126" viewBox="0 0 126 126" fill="none" xmlns="http://www.w3.org/2000/svg">
<circle cx="63" cy="63" r="63" fill="#93C572"/>
<path d="M95.2022 94.0196L82.933 81.9619C87.0932 81.171 90.25 77.5114 90.25 73.125V37.125C90.25 32.1626 86.2124 28.125 81.25 28.125H56.5C51.5376 28.125 47.5 32.1626 47.5 37.125V47.1398L29.9523 29.8946C29.3054 29.2601 28.3412 29.0756 27.5054 29.4244C26.6684 29.7754 26.125 30.5933 26.125 31.5V95.625C26.125 96.867 27.133 97.875 28.375 97.875H93.625C94.5385 97.875 95.362 97.3226 95.7074 96.4778C96.0527 95.6318 95.8536 94.6609 95.2022 94.0196ZM52 37.125C52 34.6432 54.0182 32.625 56.5 32.625H81.25C83.7318 32.625 85.75 34.6432 85.75 37.125V73.125C85.75 75.6068 83.7318 77.625 81.25 77.625H56.5C54.0182 77.625 52 75.6068 52 73.125V37.125ZM63.2972 84.375H39.6014V61.542L47.5 69.1538V73.125C47.5 78.0874 51.5376 82.125 56.5 82.125H60.9618L63.2972 84.375ZM30.625 93.375V36.8663L47.5 53.4521V62.9055L38.9117 54.63C38.2615 54.0022 37.2963 53.8256 36.4705 54.18C35.6403 54.5332 35.1014 55.3477 35.1014 56.25V86.625C35.1014 87.867 36.1094 88.875 37.3514 88.875H68.875C69.7919 88.875 70.6188 88.3181 70.9608 87.4665C71.305 86.616 71.0969 85.6418 70.4354 85.005L67.4474 82.125H76.6769L88.1249 93.375H30.625Z" fill="#F4F4F4"/>
<path d="M57.625 54H80.125C81.367 54 82.375 52.992 82.375 51.75V38.25C82.375 37.008 81.367 36 80.125 36H57.625C56.383 36 55.375 37.008 55.375 38.25V51.75C55.375 52.992 56.383 54 57.625 54ZM59.875 40.5H77.875V49.5H59.875V40.5ZM57.625 60.75H59.875C61.117 60.75 62.125 59.742 62.125 58.5C62.125 57.258 61.117 56.25 59.875 56.25H57.625C56.383 56.25 55.375 57.258 55.375 58.5C55.375 59.742 56.383 60.75 57.625 60.75ZM70 56.25H67.75C66.508 56.25 65.5 57.258 65.5 58.5C65.5 59.742 66.508 60.75 67.75 60.75H70C71.242 60.75 72.25 59.742 72.25 58.5C72.25 57.258 71.242 56.25 70 56.25ZM80.125 56.25H77.875C76.633 56.25 75.625 57.258 75.625 58.5C75.625 59.742 76.633 60.75 77.875 60.75H80.125C81.367 60.75 82.375 59.742 82.375 58.5C82.375 57.258 81.367 56.25 80.125 56.25ZM57.625 67.5H59.875C61.117 67.5 62.125 66.492 62.125 65.25C62.125 64.008 61.117 63 59.875 63H57.625C56.383 63 55.375 64.008 55.375 65.25C55.375 66.492 56.383 67.5 57.625 67.5ZM70 63H67.75C66.508 63 65.5 64.008 65.5 65.25C65.5 66.492 66.508 67.5 67.75 67.5H70C71.242 67.5 72.25 66.492 72.25 65.25C72.25 64.008 71.242 63 70 63ZM80.125 63H77.875C76.633 63 75.625 64.008 75.625 65.25C75.625 66.492 76.633 67.5 77.875 67.5H80.125C81.367 67.5 82.375 66.492 82.375 65.25C82.375 64.008 81.367 63 80.125 63ZM57.625 74.25H59.875C61.117 74.25 62.125 73.242 62.125 72C62.125 70.758 61.117 69.75 59.875 69.75H57.625C56.383 69.75 55.375 70.758 55.375 72C55.375 73.242 56.383 74.25 57.625 74.25ZM70 69.75H67.75C66.508 69.75 65.5 70.758 65.5 72C65.5 73.242 66.508 74.25 67.75 74.25H70C71.242 74.25 72.25 73.242 72.25 72C72.25 70.758 71.242 69.75 70 69.75ZM80.125 69.75H77.875C76.633 69.75 75.625 70.758 75.625 72C75.625 73.242 76.633 74.25 77.875 74.25H80.125C81.367 74.25 82.375 73.242 82.375 72C82.375 70.758 81.367 69.75 80.125 69.75Z" fill="#F4F4F4"/>
</svg>
