<svg width="635" height="635" viewBox="0 0 635 635" fill="none" xmlns="http://www.w3.org/2000/svg">
<rect width="635" height="635" rx="20" fill="#93C572" fill-opacity="0.2"/>
<path d="M153 84C165.15 84 175 74.1503 175 62C175 49.8497 165.15 40 153 40C140.85 40 131 49.8497 131 62C131 74.1503 140.85 84 153 84Z" fill="#103713" fill-opacity="0.7"/>
<path d="M160.257 47.9444H147.653C146.316 47.9444 145.033 48.4724 144.088 49.4122C143.142 50.3519 142.611 51.6265 142.611 52.9556V67.9889C142.611 69.3179 143.142 70.5925 144.088 71.5323C145.033 72.472 146.316 73 147.653 73H160.257C160.925 73 161.567 72.736 162.039 72.2661C162.512 71.7963 162.778 71.159 162.778 70.4944V50.45C162.778 49.7855 162.512 49.1482 162.039 48.6783C161.567 48.2084 160.925 47.9444 160.257 47.9444ZM145.132 52.9556C145.132 52.291 145.398 51.6537 145.87 51.1839C146.343 50.714 146.984 50.45 147.653 50.45H160.257V62.9778H147.653C146.764 62.9815 145.893 63.2239 145.132 63.6793V52.9556ZM147.653 70.4944C146.984 70.4944 146.343 70.2305 145.87 69.7606C145.398 69.2907 145.132 68.6534 145.132 67.9889C145.132 67.3244 145.398 66.6871 145.87 66.2172C146.343 65.7473 146.984 65.4833 147.653 65.4833H160.257V70.4944H147.653ZM150.174 55.4611H155.215C155.55 55.4611 155.87 55.3291 156.107 55.0942C156.343 54.8592 156.476 54.5406 156.476 54.2083C156.476 53.8761 156.343 53.5574 156.107 53.3225C155.87 53.0875 155.55 52.9556 155.215 52.9556H150.174C149.839 52.9556 149.519 53.0875 149.282 53.3225C149.046 53.5574 148.913 53.8761 148.913 54.2083C148.913 54.5406 149.046 54.8592 149.282 55.0942C149.519 55.3291 149.839 55.4611 150.174 55.4611Z" fill="#F4F4F4"/>
<circle cx="564" cy="165" r="20" fill="#93C572"/>
<path d="M568.373 165.292L565.75 163.779V158.25C565.75 157.919 565.618 157.601 565.384 157.366C565.149 157.132 564.832 157 564.5 157C564.168 157 563.851 157.132 563.616 157.366C563.382 157.601 563.25 157.919 563.25 158.25V164.5C563.25 164.72 563.308 164.935 563.417 165.125C563.527 165.315 563.685 165.473 563.875 165.583L567.123 167.458C567.265 167.54 567.422 167.593 567.585 167.615C567.748 167.636 567.913 167.626 568.072 167.583C568.23 167.541 568.379 167.467 568.509 167.367C568.64 167.267 568.749 167.143 568.831 167C568.913 166.858 568.966 166.701 568.988 166.538C569.009 166.375 568.998 166.21 568.956 166.051C568.913 165.893 568.84 165.744 568.74 165.614C568.64 165.484 568.515 165.374 568.373 165.292ZM564.5 152C562.028 152 559.611 152.733 557.555 154.107C555.5 155.48 553.898 157.432 552.952 159.717C552.005 162.001 551.758 164.514 552.24 166.939C552.723 169.363 553.913 171.591 555.661 173.339C557.409 175.087 559.637 176.278 562.061 176.76C564.486 177.242 566.999 176.995 569.284 176.049C571.568 175.102 573.52 173.5 574.893 171.445C576.267 169.389 577 166.972 577 164.5C576.996 161.186 575.678 158.009 573.335 155.665C570.991 153.322 567.814 152.004 564.5 152ZM564.5 174.5C562.522 174.5 560.589 173.914 558.944 172.815C557.3 171.716 556.018 170.154 555.261 168.327C554.504 166.5 554.306 164.489 554.692 162.549C555.078 160.609 556.03 158.828 557.429 157.429C558.827 156.03 560.609 155.078 562.549 154.692C564.489 154.306 566.5 154.504 568.327 155.261C570.154 156.018 571.716 157.3 572.815 158.944C573.914 160.589 574.5 162.522 574.5 164.5C574.497 167.151 573.442 169.693 571.568 171.568C569.693 173.442 567.151 174.497 564.5 174.5Z" fill="#F4F4F4"/>
<path d="M48.5 229.995C60.9264 229.995 71 219.922 71 207.497C71 195.072 60.9264 185 48.5 185C36.0736 185 26 195.072 26 207.497C26 219.922 36.0736 229.995 48.5 229.995Z" fill="#E0BF56"/>
<path d="M55.148 194.982C53.8905 193.951 52.4179 193.213 50.8378 192.821C49.2576 192.43 47.6098 192.395 46.0144 192.719C43.8901 193.147 41.9412 194.194 40.4148 195.728C38.8885 197.263 37.8536 199.214 37.4413 201.336C37.1403 202.926 37.195 204.564 37.6015 206.131C38.0081 207.698 38.7564 209.157 39.7931 210.402C40.7553 211.485 41.3068 212.869 41.3519 214.315V218.405C41.3519 219.49 41.784 220.531 42.5533 221.298C43.3225 222.065 44.3659 222.496 45.4538 222.496H50.923C52.0109 222.496 53.0543 222.065 53.8235 221.298C54.5928 220.531 55.025 219.49 55.025 218.405V214.574C55.0709 212.978 55.659 211.444 56.6931 210.225C58.5049 207.99 59.359 205.132 59.0697 202.273C58.7804 199.414 57.3711 196.784 55.148 194.955V194.982ZM52.2904 218.405C52.2904 218.767 52.1463 219.114 51.8899 219.369C51.6335 219.625 51.2857 219.769 50.923 219.769H45.4538C45.0912 219.769 44.7434 219.625 44.487 219.369C44.2305 219.114 44.0865 218.767 44.0865 218.405V217.042H52.2904V218.405ZM54.5738 208.534C53.1989 210.16 52.3968 212.191 52.2904 214.315H49.5557V210.225C49.5557 209.863 49.4117 209.517 49.1553 209.261C48.8988 209.005 48.551 208.862 48.1884 208.862C47.8258 208.862 47.478 209.005 47.2216 209.261C46.9652 209.517 46.8211 209.863 46.8211 210.225V214.315H44.0865C44.0504 212.227 43.2756 210.218 41.8988 208.643C40.9904 207.558 40.3795 206.257 40.1258 204.866C39.8721 203.475 39.9841 202.043 40.4509 200.708C40.9178 199.373 41.7235 198.182 42.7896 197.25C43.8557 196.318 45.1458 195.678 46.534 195.391C47.727 195.146 48.9598 195.169 50.1428 195.459C51.3258 195.748 52.4294 196.296 53.3733 197.064C54.3173 197.832 55.078 198.799 55.6002 199.897C56.1224 200.994 56.393 202.193 56.3923 203.408C56.4024 205.276 55.7593 207.088 54.5738 208.534Z" fill="#F4F4F4"/>
<circle cx="513.5" cy="79.5" r="17.5" fill="#F4F4F4"/>
<path d="M513.938 76.1413C509.831 76.1413 506.496 79.4758 506.496 83.5831C506.496 87.6904 509.831 91.0249 513.938 91.0249C518.045 91.0249 521.38 87.6904 521.38 83.5831C521.38 79.4758 518.045 76.1413 513.938 76.1413ZM513.938 77.3531C517.376 77.3531 520.168 80.1444 520.168 83.5831C520.168 87.0218 517.376 89.8132 513.938 89.8132C510.499 89.8132 507.708 87.0218 507.708 83.5831C507.708 80.1444 510.499 77.3531 513.938 77.3531Z" fill="#93C572" stroke="#93C572" stroke-width="0.3"/>
<path d="M512.42 74.0127V70.3672C512.42 70.1979 512.283 70.0611 512.115 70.0611H504.367C504.199 70.0611 504.061 70.1979 504.061 70.3672V74.0127C504.061 74.1819 504.199 74.3188 504.367 74.3188H506.19C506.524 74.3188 506.796 74.5899 506.796 74.9243V76.4471L509.229 74.6223L512.42 74.0127ZM512.42 74.0127C512.42 74.1819 512.283 74.3188 512.115 74.3188M512.42 74.0127L512.115 74.3188M512.115 74.3188H510.14M512.115 74.3188H510.14M510.14 74.3188C509.812 74.3188 509.492 74.4247 509.23 74.6222L510.14 74.3188ZM504.367 75.5299H505.584V77.6587C505.584 77.8881 505.714 78.098 505.919 78.2005C506.125 78.3028 506.37 78.2807 506.553 78.1436L506.554 78.1435L506.464 78.0235L506.554 78.1434L506.554 78.1434L506.554 78.1431L506.555 78.1421L506.561 78.1379L506.583 78.1215L506.666 78.0589L506.971 77.8307L507.949 77.0967L509.956 75.5913C509.956 75.5913 509.956 75.5913 509.956 75.5913C510.01 75.5515 510.074 75.5299 510.14 75.5299H512.115C512.953 75.5299 513.632 74.8507 513.632 74.0127V70.3672C513.632 69.5291 512.953 68.85 512.115 68.85H504.367C503.529 68.85 502.85 69.5291 502.85 70.3672V74.0127C502.85 74.8507 503.529 75.5299 504.367 75.5299Z" fill="#93C572" stroke="#93C572" stroke-width="0.3"/>
<path d="M515.456 70.3672C515.456 70.1979 515.593 70.0611 515.761 70.0611H523.509C523.677 70.0611 523.815 70.1979 523.815 70.3672V74.0127C523.815 74.1819 523.677 74.3188 523.509 74.3188H521.686C521.352 74.3188 521.08 74.5899 521.08 74.9243V76.4471L518.646 74.6223L515.456 70.3672ZM515.456 70.3672V74.0127C515.456 74.1819 515.593 74.3188 515.761 74.3188H517.736C518.064 74.3188 518.384 74.4247 518.646 74.6222L515.456 70.3672ZM522.292 75.5299V77.6587C522.292 77.8881 522.162 78.098 521.956 78.2005C521.751 78.3028 521.506 78.2807 521.323 78.1436L521.322 78.1435L521.412 78.0235L521.322 78.1434L521.322 78.1434L521.322 78.1431L521.321 78.1421L521.315 78.1379L521.293 78.1215L521.21 78.0589L520.905 77.8307L519.927 77.0967L517.92 75.5913C517.92 75.5913 517.92 75.5913 517.92 75.5913C517.866 75.5515 517.802 75.5299 517.736 75.5299H515.761C514.923 75.5299 514.244 74.8507 514.244 74.0127V70.3672C514.244 69.5291 514.923 68.85 515.761 68.85H523.509C524.347 68.85 525.026 69.5291 525.026 70.3672V74.0127C525.026 74.8507 524.347 75.5299 523.509 75.5299H522.292Z" fill="#93C572" stroke="#93C572" stroke-width="0.3"/>
<path d="M508.761 78.4532L508.761 78.4532C511.154 78.227 512.579 79.2118 513.045 80.1809C513.299 80.7082 513.293 81.2515 513.058 81.6803C512.551 82.6032 512.46 83.3533 512.54 83.9951C512.609 84.5494 512.805 85.0268 512.993 85.4847L508.761 78.4532ZM508.761 78.4532C508.608 78.4677 508.466 78.5397 508.364 78.6548M508.761 78.4532L508.364 78.6548M507.213 85.0757C506.976 85.0921 506.766 84.9244 506.731 84.6897C506.676 84.3288 506.647 83.9592 506.647 83.5832L507.213 85.0757ZM507.213 85.0757C507.83 85.0324 508.394 84.9978 508.578 85.0283L507.213 85.0757ZM508.364 78.6548C507.203 79.9677 506.497 81.694 506.497 83.5832C506.497 83.9668 506.526 84.3439 506.583 84.7123C506.583 84.7123 506.583 84.7123 506.583 84.7124L508.364 78.6548ZM512.356 87.0987L512.207 87.1181C512.243 87.3901 512.25 87.6441 512.224 87.8505C512.047 87.6252 511.846 87.3184 511.622 86.9728C511.593 86.9286 511.564 86.884 511.535 86.8389C511.102 86.1703 510.608 85.4079 510.108 84.8606L510.108 84.8606C509.679 84.3906 509.21 84.0578 508.752 83.9817C508.653 83.9651 508.487 83.9605 508.29 83.9627C508.125 83.9645 507.932 83.9712 507.721 83.9817C507.713 83.8498 507.708 83.717 507.708 83.5832C507.708 82.0883 508.236 80.7153 509.116 79.641C509.801 79.6024 510.368 79.685 510.82 79.842L510.82 79.842C511.45 80.0612 511.831 80.412 511.972 80.746L511.972 80.7462C512.037 80.9019 512.038 81.0202 511.996 81.0977L512.127 81.1696L511.996 81.0975C511.364 82.2488 511.227 83.2068 511.317 84.0396C511.397 84.773 511.653 85.4037 511.88 85.9634C511.909 86.0337 511.937 86.1029 511.964 86.1709L511.964 86.171C512.082 86.4658 512.165 86.7981 512.207 87.1184L512.356 87.0987ZM512.356 87.0987C512.4 87.4331 512.403 87.7539 512.35 88.0023L512.356 87.0987ZM516.461 76.5805L516.461 76.5806C519.077 77.5242 521.014 79.8927 521.334 82.7476L521.334 82.7478C521.363 83.0102 521.219 83.2623 520.976 83.3691C520.276 83.6778 519.776 84.1968 519.357 84.7485C519.135 85.0413 518.937 85.3405 518.746 85.6275C518.737 85.6414 518.728 85.6552 518.718 85.6691C518.521 85.9666 518.33 86.2522 518.133 86.4927C517.729 86.9881 517.27 87.3248 516.71 87.373C516.335 87.4054 515.92 87.3099 515.45 87.0282C515.45 87.0282 515.45 87.0282 515.45 87.0282L515.527 86.8996L516.461 76.5805ZM516.461 76.5805C516.321 76.5304 516.167 76.5326 516.028 76.5891L516.461 76.5805ZM520.236 82.5514C519.123 83.157 518.441 84.177 517.86 85.0464C517.794 85.1453 517.729 85.2422 517.665 85.3364C517.465 85.6313 517.275 85.8942 517.068 86.0838M520.236 82.5514C519.871 80.3069 518.332 78.4539 516.271 77.6432M520.236 82.5514L520.088 82.5755C520.082 82.541 520.076 82.5067 520.07 82.4724M520.236 82.5514L520.164 82.4197C520.133 82.4369 520.101 82.4545 520.07 82.4724M516.271 77.6432C515.681 77.9362 515.306 78.4516 515.306 78.989C515.306 79.5358 515.628 79.8367 515.953 80.1391C516.016 80.1983 516.08 80.2576 516.141 80.3188C516.692 80.8702 517.166 81.4932 516.89 82.7337M516.271 77.6432L516.337 77.7775C516.318 77.7874 516.298 77.7975 516.279 77.8079M516.271 77.6432L516.216 77.7828C516.237 77.791 516.258 77.7994 516.279 77.8079M516.89 82.7337C516.841 82.9538 516.688 83.2724 516.492 83.637M516.89 82.7337L517.036 82.7663C517.18 82.1213 517.131 81.624 516.965 81.2118C516.8 80.8031 516.526 80.492 516.247 80.2127C516.178 80.1441 516.11 80.0799 516.044 80.0179C515.723 79.7169 515.456 79.4656 515.456 78.989C515.456 78.5407 515.761 78.0867 516.279 77.8079M516.89 82.7337L516.967 85.973M516.492 83.637C516.465 83.6868 516.438 83.7377 516.41 83.7896C516.184 84.2088 515.924 84.6895 515.792 85.145C515.679 85.5319 515.641 85.9047 515.996 86.118M516.492 83.637L516.624 83.7078C516.597 83.7581 516.57 83.8091 516.542 83.8608C516.314 84.2823 516.063 84.7479 515.936 85.1868L515.936 85.1869C515.881 85.3764 515.85 85.5418 515.867 85.6782C515.883 85.8041 515.938 85.9082 516.073 85.9893M516.492 83.637L516.967 85.973M515.996 86.118C516.225 86.2552 516.417 86.3235 516.592 86.3171M515.996 86.118L516.073 85.9894C516.073 85.9894 516.073 85.9894 516.073 85.9893M515.996 86.118L516.073 85.9893M516.592 86.3171C516.773 86.3103 516.923 86.216 517.068 86.0838M516.592 86.3171L516.586 86.1672C516.586 86.1672 516.586 86.1672 516.587 86.1672M516.592 86.3171L516.587 86.1672M517.068 86.0838L516.967 85.9731C516.967 85.9731 516.967 85.973 516.967 85.973M517.068 86.0838L516.967 85.973M516.967 85.973C516.831 86.0964 516.715 86.1623 516.587 86.1672M516.967 85.973C517.159 85.7967 517.341 85.5476 517.541 85.2522L517.541 85.2521C517.605 85.1587 517.669 85.0619 517.736 84.9628C518.298 84.12 518.978 83.1021 520.07 82.4724M516.587 86.1672C516.454 86.1721 516.292 86.1207 516.073 85.9893M520.07 82.4724C519.688 80.3503 518.229 78.5996 516.279 77.8079M513.429 87.2205C513.392 86.725 513.277 86.1914 513.089 85.7214L511.092 88.0949L510.968 88.1797C510.968 88.1797 510.968 88.1797 510.968 88.1797C511.241 88.5772 511.503 88.9047 511.727 89.0744L511.727 89.0745C511.923 89.2231 512.121 89.2863 512.299 89.2863C512.762 89.2863 513.117 89.006 513.302 88.5206L513.302 88.5206C513.43 88.1833 513.467 87.7128 513.429 87.2205Z" fill="#93C572" stroke="#93C572" stroke-width="0.3"/>
<path d="M505.735 71.8841H510.748C511.082 71.8841 511.353 71.6128 511.353 71.2784C511.353 70.9439 511.082 70.6726 510.748 70.6726H505.735C505.4 70.6726 505.129 70.9439 505.129 71.2784C505.129 71.6128 505.4 71.8841 505.735 71.8841Z" fill="#93C572" stroke="#93C572" stroke-width="0.3"/>
<path d="M517.128 71.884H522.141C522.476 71.884 522.747 71.6127 522.747 71.2783C522.747 70.9439 522.476 70.6726 522.141 70.6726H517.128C516.794 70.6726 516.522 70.9439 516.522 71.2783C516.522 71.6127 516.794 71.884 517.128 71.884Z" fill="#93C572" stroke="#93C572" stroke-width="0.3"/>
<path d="M505.735 73.707H510.748C511.082 73.707 511.353 73.4357 511.353 73.1013C511.353 72.7668 511.082 72.4956 510.748 72.4956H505.735C505.4 72.4956 505.129 72.7668 505.129 73.1013C505.129 73.4357 505.4 73.707 505.735 73.707Z" fill="#93C572" stroke="#93C572" stroke-width="0.3"/>
<path d="M517.128 73.707H522.141C522.476 73.707 522.747 73.4357 522.747 73.1013C522.747 72.7668 522.476 72.4956 522.141 72.4956H517.128C516.794 72.4956 516.522 72.7668 516.522 73.1013C516.522 73.4357 516.794 73.707 517.128 73.707Z" fill="#93C572" stroke="#93C572" stroke-width="0.3"/>
</svg>
