<svg width="126" height="126" viewBox="0 0 126 126" fill="none" xmlns="http://www.w3.org/2000/svg">
<circle cx="63" cy="63" r="63" fill="#93C572"/>
<path fill-rule="evenodd" clip-rule="evenodd" d="M66.1285 89.0583C65.8896 87.8652 65.3432 86.76 64.5423 85.8823C63.4418 84.6742 61.9477 83.9961 60.3889 83.9961C53.4568 83.9961 39.7492 83.9961 39.7492 83.9961C38.6683 83.9961 37.791 84.9574 37.791 86.142V107.565C37.791 108.749 38.6663 109.709 39.7473 109.711C39.7473 109.711 52.5932 109.732 58.9144 109.741C61.5266 109.745 64.088 108.932 66.293 107.393C69.712 105.009 75.4673 100.996 79.6814 98.0562C83.5215 95.3803 85.8459 90.7365 85.8459 85.7493V85.7429C85.8459 83.3673 84.6298 81.1935 82.699 80.1162C80.7682 79.0389 78.4477 79.2385 76.697 80.6355L66.1285 89.0583ZM62.3472 90.4339C62.3472 89.8652 62.1415 89.318 61.7734 88.9167C61.4072 88.5133 60.9079 88.2879 60.3889 88.2879H41.7075V105.421L58.9183 105.449C60.7864 105.453 62.6154 104.872 64.1898 103.773C67.6089 101.389 73.3641 97.3738 77.5782 94.4361C80.2884 92.5455 81.9294 89.2708 81.9294 85.7493V85.7429C81.9294 84.981 81.5397 84.2858 80.9209 83.9403C80.3041 83.5948 79.5599 83.6592 78.9999 84.1077L64.5286 95.6399C63.524 96.4404 62.3158 96.8717 61.0743 96.8717H53.4568C52.3759 96.8717 51.4986 95.9103 51.4986 94.7258C51.4986 93.5412 52.3759 92.5798 53.4568 92.5798H60.3889C61.4699 92.5798 62.3472 91.6184 62.3472 90.4339Z" fill="#F4F4F4"/>
<path fill-rule="evenodd" clip-rule="evenodd" d="M41.7076 86.1042C41.7076 82.5492 39.0777 79.667 35.8329 79.667C35.1886 79.667 34.5189 79.667 33.8747 79.667C30.6299 79.667 28 82.5492 28 86.1042V107.563C28 111.118 30.6299 114 33.8747 114C34.5189 114 35.1886 114 35.8329 114C39.0777 114 41.7076 111.118 41.7076 107.563V86.1042ZM37.7911 86.1042V107.563C37.7911 108.749 36.9138 109.71 35.8329 109.71H33.8747C32.7937 109.71 31.9165 108.749 31.9165 107.563V86.1042C31.9165 84.9186 32.7937 83.9572 33.8747 83.9572H35.8329C36.9138 83.9572 37.7911 84.9186 37.7911 86.1042Z" fill="#F4F4F4"/>
<path fill-rule="evenodd" clip-rule="evenodd" d="M84.7885 38.896C84.7885 42.4511 87.4184 45.3333 90.6632 45.3333C91.3074 45.3333 91.9772 45.3333 92.6214 45.3333C95.8662 45.3333 98.4961 42.4511 98.4961 38.896V17.4373C98.4961 13.8822 95.8662 11 92.6214 11C91.9772 11 91.3074 11 90.6632 11C87.4184 11 84.7885 13.8822 84.7885 17.4373V38.896ZM88.705 38.896V17.4373C88.705 16.2516 89.5823 15.2902 90.6632 15.2902H92.6214C93.7024 15.2902 94.5796 16.2516 94.5796 17.4373V38.896C94.5796 40.0817 93.7024 41.0431 92.6214 41.0431H90.6632C89.5823 41.0431 88.705 40.0817 88.705 38.896Z" fill="#F4F4F4"/>
<path fill-rule="evenodd" clip-rule="evenodd" d="M76.4194 66.7383L76.4642 66.692L76.4694 66.6849C80.4402 62.2787 80.4248 55.1682 76.4232 50.7817C72.8397 46.8547 67.2632 46.4302 63.2488 49.5083C59.2343 46.4302 53.6578 46.8547 50.0743 50.7817C46.0727 55.1682 46.0573 62.2787 50.0281 66.6849L61.8636 79.6563C62.2317 80.0597 62.7293 80.2846 63.2488 80.2846C63.7682 80.2846 64.2658 80.0597 64.6339 79.6563L76.4232 66.7369L76.4194 66.7383ZM73.6837 63.6687L73.6516 63.7039L63.2488 75.1039L52.8126 63.6673C50.3539 60.9364 50.3654 56.533 52.8433 53.8161C55.3328 51.0895 59.3754 51.0895 61.8636 53.8161C62.6293 54.6552 63.8682 54.6552 64.6339 53.8161C67.1221 51.0895 71.1647 51.0895 73.6542 53.8161C76.1333 56.533 76.1436 60.9378 73.6837 63.6687ZM75.1342 67.3216H75.1304L75.038 67.3652L75.1342 67.3216Z" fill="#F4F4F4"/>
<path fill-rule="evenodd" clip-rule="evenodd" d="M60.3675 35.9421C60.6064 37.1352 61.1528 38.2404 61.9537 39.1181C63.0542 40.3263 64.5483 41.0044 66.1071 41.0044C73.0392 41.0044 86.7468 41.0044 86.7468 41.0044C87.8277 41.0044 88.705 40.043 88.705 38.8584V17.4355C88.705 16.251 87.8297 15.2917 86.7487 15.2896C86.7487 15.2896 73.9028 15.2681 67.5816 15.2595C64.9694 15.2552 62.408 16.0685 60.203 17.6072C56.784 19.9913 51.0287 24.0042 46.8146 26.9442C42.9746 29.6202 40.6501 34.2639 40.6501 39.2511C40.6501 39.2532 40.6501 39.2554 40.6501 39.2576C40.6501 41.6331 41.8662 43.8069 43.797 44.8842C45.7278 45.9614 48.0483 45.7619 49.799 44.3649L60.3675 35.9421ZM64.1489 34.5666C64.1489 35.1352 64.3545 35.6824 64.7226 36.0837C65.0888 36.4872 65.5881 36.7125 66.1071 36.7125H84.7885V19.5793L67.5777 19.5514C65.7096 19.5471 63.8806 20.1287 62.3062 21.2274C58.8871 23.6115 53.1319 27.6266 48.9178 30.5644C46.2076 32.455 44.5666 35.7296 44.5666 39.2511V39.2576C44.5666 40.0194 44.9563 40.7147 45.5751 41.0602C46.1919 41.4057 46.9361 41.3413 47.4961 40.8928L61.9674 29.3605C62.972 28.5601 64.1802 28.1287 65.4217 28.1287H73.0392C74.1201 28.1287 74.9974 29.0901 74.9974 30.2747C74.9974 31.4592 74.1201 32.4206 73.0392 32.4206H66.1071C65.0261 32.4206 64.1489 33.382 64.1489 34.5666Z" fill="#F4F4F4"/>
</svg>
