<svg width="458" height="949" viewBox="0 0 458 949" fill="none" xmlns="http://www.w3.org/2000/svg">
<rect y="949" width="602" height="458" rx="20" transform="rotate(-90 0 949)" fill="#D9D9D9"/>
<mask id="mask0_3755_1424" style="mask-type:alpha" maskUnits="userSpaceOnUse" x="0" y="0" width="458" height="949">
<rect y="949" width="949" height="458" rx="20" transform="rotate(-90 0 949)" fill="#D9D9D9"/>
</mask>
<g mask="url(#mask0_3755_1424)">
<ellipse cx="94.0236" cy="113.487" rx="94.0236" ry="113.487" transform="matrix(0 1 1 0 263.292 795.853)" fill="#F4F4F4"/>
<ellipse cx="65.4077" cy="78.9475" rx="65.4077" ry="78.9475" transform="matrix(0 1 1 0 219.589 759.646)" fill="#F4F4F4" fill-opacity="0.7"/>
</g>
<circle cx="331" cy="347" r="75" fill="#93C572"/>
<path d="M331 337.033C335.534 337.033 339.966 335.689 343.735 333.17C347.505 330.651 350.443 327.071 352.178 322.882C353.913 318.693 354.367 314.084 353.483 309.637C352.598 305.19 350.415 301.106 347.209 297.9C344.003 294.694 339.919 292.511 335.472 291.626C331.025 290.742 326.416 291.196 322.227 292.931C318.039 294.666 314.458 297.604 311.94 301.374C309.421 305.143 308.076 309.576 308.076 314.109C308.076 320.189 310.491 326.02 314.79 330.319C319.089 334.618 324.92 337.033 331 337.033ZM365.385 394.342C366.905 394.342 368.363 393.738 369.438 392.663C370.512 391.589 371.116 390.131 371.116 388.611C371.116 377.972 366.89 367.768 359.366 360.245C351.843 352.721 341.639 348.495 331 348.495C320.36 348.495 310.157 352.721 302.633 360.245C295.11 367.768 290.884 377.972 290.884 388.611C290.884 390.131 291.487 391.589 292.562 392.663C293.637 393.738 295.095 394.342 296.614 394.342H365.385Z" fill="#F4F4F4"/>
</svg>
