<svg width="72" height="72" viewBox="0 0 72 72" fill="none" xmlns="http://www.w3.org/2000/svg">
<path d="M36 72C55.8823 72 72 55.8823 72 36C72 16.1177 55.8823 0 36 0C16.1177 0 0 16.1177 0 36C0 55.8823 16.1177 72 36 72Z" fill="#93C572"/>
<path d="M36.0001 16.7143C25.3646 16.7143 16.7144 25.3646 16.7144 36C16.7144 46.6354 25.3646 55.2857 36.0001 55.2857C46.6355 55.2857 55.2858 46.6354 55.2858 36C55.2858 25.3646 46.6355 16.7143 36.0001 16.7143ZM36.0001 19.2857C37.2729 19.2857 38.5072 19.44 39.6978 19.7074C40.1426 20.4403 40.5644 21.2966 40.8858 22.3689H31.1144C31.5746 21.2169 32.0401 20.3529 32.5235 19.6483C33.6446 19.4117 34.8069 19.2857 36.0001 19.2857ZM42.7372 20.7C43.7667 21.1567 44.7472 21.7167 45.6635 22.3714H43.7144C43.4315 22.3714 43.0844 21.6077 42.7372 20.7ZM29.0881 20.7874C28.8001 21.6566 28.5429 22.3689 28.2858 22.3689H26.3366C27.2013 21.7553 28.1226 21.2257 29.0881 20.7874ZM23.4824 24.9403H27.5144C27.0001 27.5117 26.7455 30.0832 26.7455 30.0832H20.3761C21.0917 28.1944 22.1452 26.4518 23.4849 24.9403H23.4824ZM30.0832 24.9403H41.6546C42.1689 27.5117 42.4261 30.0832 42.6832 30.0832H29.3144C29.3144 30.0832 29.8261 27.5117 30.0832 24.9403ZM44.4884 24.9403H48.5152C49.8559 26.4516 50.9102 28.1943 51.6266 30.0832H45.2572C45.0001 30.0832 44.7429 27.5117 44.4858 24.9403H44.4884ZM19.6175 32.6546H26.4858V37.7974H19.3861C19.1997 36.0814 19.2778 34.3469 19.6175 32.6546ZM29.0598 32.6546H42.9404V37.7974H29.0598V32.6546ZM45.5118 32.6546H52.3826C52.7224 34.3469 52.8004 36.0814 52.6141 37.7974H45.5118V32.6546ZM19.8772 40.3689H26.7429C27.0001 42.9403 27.2572 45.5117 27.5144 45.5117H22.2558C21.1733 43.9465 20.3705 42.2069 19.8772 40.3689ZM29.0572 40.3689H42.6858C42.6858 42.9403 42.1715 45.5117 41.9144 45.5117H30.0858C29.5715 45.5117 29.3144 42.9403 29.0572 40.3689ZM45.2572 40.3689H52.1229C51.6297 42.2069 50.8242 43.9465 49.7418 45.5117H44.4858C44.7429 45.5117 45.2572 42.9403 45.2572 40.3689ZM24.4646 48.0832H28.2858C28.6329 49.8189 29.0778 50.6803 29.5021 51.408C27.6338 50.6156 25.9258 49.4889 24.4621 48.0832H24.4646ZM30.8572 48.0832H40.8858C40.1272 49.9809 39.3635 51.4517 38.5021 52.506C37.6844 52.632 36.8512 52.7143 36.0001 52.7143C35.0795 52.7143 34.1821 52.6217 33.3026 52.4777C32.4129 51.5263 31.6364 50.0297 30.8572 48.0832ZM43.4572 48.0832H47.5355C45.9941 49.5592 44.1836 50.7254 42.2024 51.5186C42.6729 50.7394 43.0844 49.95 43.4572 48.0832Z" fill="#F4F4F4"/>
</svg>
