<svg width="72" height="72" viewBox="0 0 72 72" fill="none" xmlns="http://www.w3.org/2000/svg">
<path d="M36 72C55.8823 72 72 55.8823 72 36C72 16.1177 55.8823 0 36 0C16.1177 0 0 16.1177 0 36C0 55.8823 16.1177 72 36 72Z" fill="#E6D5C3" fill-opacity="0.8"/>
<path d="M45.1809 16.0035C44.9474 15.9919 44.7134 16.0094 44.4843 16.0554C43.5926 16.2297 42.8867 16.7991 42.543 17.6151C41.8845 19.1796 41.7778 20.9211 42.2402 22.5541L38.5324 26.2522C36.4184 25.1058 34.0266 24.5691 31.6246 24.702C29.2225 24.835 26.9048 25.6325 24.9307 27.0052C24.6063 27.2322 24.3358 27.5276 24.1383 27.8705C23.9409 28.2135 23.8214 28.5955 23.7883 28.9897C23.714 29.8243 24.0112 30.6422 24.6001 31.2338L29.1587 35.7851L17.1881 51.5107C17.0838 51.6485 17.0201 51.8126 17.004 51.9846C16.988 52.1566 17.0202 52.3296 17.0972 52.4843C17.1742 52.639 17.2928 52.7692 17.4398 52.8603C17.5868 52.9513 17.7563 52.9997 17.9293 53C18.1322 52.9979 18.3291 52.9302 18.4903 52.8071L34.2412 40.8576L38.798 45.4071C39.0897 45.699 39.442 45.9234 39.8301 46.0644C40.2182 46.2054 40.6326 46.2596 41.0439 46.2231C41.4392 46.1893 41.8221 46.0691 42.1656 45.871C42.5091 45.6729 42.8047 45.4018 43.0316 45.0769C44.4066 43.1061 45.2056 40.7924 45.3394 38.3944C45.4733 35.9963 44.9367 33.6083 43.7895 31.4972L47.5308 27.7619C49.1408 28.1983 50.8507 28.0847 52.3885 27.4392C52.7891 27.2721 53.1414 27.0076 53.4133 26.6697C53.6852 26.3318 53.8681 25.9314 53.9453 25.5048C54.0364 25.0491 54.0135 24.578 53.8787 24.1331C53.7439 23.6883 53.5013 23.2836 53.1725 22.9547L47.0385 16.8269C46.5429 16.3322 45.8809 16.0387 45.1809 16.0035ZM44.8391 17.8766C44.9967 17.8456 45.1595 17.8536 45.3133 17.8998C45.4671 17.9461 45.6072 18.0291 45.7215 18.1419L51.8554 24.2659C51.9684 24.38 52.052 24.5198 52.0989 24.6732C52.1458 24.8267 52.1547 24.9892 52.1248 25.1469C52.1041 25.2741 52.0517 25.394 51.9725 25.4958C51.8933 25.5975 51.7898 25.6778 51.6715 25.7292C50.3688 26.272 48.9101 26.3097 47.581 25.8349C47.4151 25.7768 47.2361 25.7668 47.0648 25.8062C46.8934 25.8456 46.7368 25.9328 46.6131 26.0575L41.9727 30.6886C41.8243 30.8366 41.7303 31.0304 41.7061 31.2384C41.6818 31.4465 41.7286 31.6566 41.839 31.8347C42.9806 33.6765 43.5576 35.8115 43.4989 37.9766C43.4401 40.1418 42.7482 42.2424 41.5083 44.0198C41.4361 44.1212 41.3425 44.2056 41.2339 44.2668C41.1254 44.328 41.0047 44.3646 40.8805 44.374C40.7397 44.387 40.5977 44.3688 40.4648 44.3208C40.3318 44.2727 40.2112 44.1959 40.1114 44.0958L35.079 39.0697C35.0512 39.0326 35.0363 38.9881 35.0029 38.9547L31.0647 35.0229C31.0331 34.9876 30.9867 34.9765 30.9495 34.9487L25.9153 29.9226C25.8153 29.8225 25.7386 29.7017 25.6908 29.5686C25.6429 29.4356 25.6251 29.2936 25.6385 29.1529C25.6477 29.0288 25.6842 28.9082 25.7456 28.7998C25.8069 28.6914 25.8915 28.5979 25.9933 28.526C27.8547 27.2301 30.0698 26.5361 32.339 26.5379C34.3638 26.5379 36.3998 27.0924 38.1999 28.2015C38.3778 28.3104 38.5874 28.3562 38.7946 28.3316C39.0019 28.3071 39.1948 28.2135 39.3423 28.0661L43.953 23.4629C44.0791 23.3381 44.1667 23.18 44.2056 23.0071C44.2444 22.8342 44.2328 22.6538 44.1722 22.4873C43.6702 21.1438 43.6988 19.6599 44.2521 18.3366C44.3039 18.2173 44.3848 18.1127 44.4873 18.0324C44.5897 17.9521 44.7107 17.8986 44.8391 17.8766ZM30.4851 37.1038L32.9167 39.5315L22.7907 47.2135L30.4851 37.1057V37.1038Z" fill="#F4F4F4"/>
</svg>
