<svg width="72" height="72" viewBox="0 0 72 72" fill="none" xmlns="http://www.w3.org/2000/svg">
<path d="M36 72C55.8823 72 72 55.8823 72 36C72 16.1177 55.8823 0 36 0C16.1177 0 0 16.1177 0 36C0 55.8823 16.1177 72 36 72Z" fill="#E0BF56"/>
<path d="M55.6499 50.7317L55.6426 50.7067C55.5637 50.5205 55.4693 50.3411 55.3606 50.1706C55.34 50.1368 55.3268 50.0986 55.3048 50.0649C55.1685 49.8593 55.012 49.6679 54.8377 49.4935L51.7225 46.3768L49.5384 44.1928L49.5296 44.1796L49.5164 44.1708L27.8391 22.4905C27.7689 22.4212 27.6855 22.3668 27.5938 22.3304H27.5836L14.0843 17.1325C13.9517 17.0816 13.8073 17.0703 13.6684 17.0998C13.5295 17.1293 13.4022 17.1984 13.3018 17.2988C13.2014 17.3992 13.1322 17.5266 13.1027 17.6655C13.0732 17.8043 13.0846 17.9488 13.1355 18.0814L18.329 31.5821V31.5924C18.3653 31.6841 18.4198 31.7675 18.4891 31.8377L40.1678 53.5164L40.1766 53.5296L40.1898 53.5384L42.3739 55.7225L45.4906 58.8377C45.665 59.012 45.8564 59.1685 46.0619 59.3048C46.0942 59.3268 46.1309 59.3385 46.1647 59.3591C46.3361 59.4685 46.5165 59.5633 46.7038 59.6426L46.7317 59.6514C47.6038 60.0029 48.5782 60.0029 49.4503 59.6514H49.4709C49.6587 59.5722 49.8395 59.4774 50.0114 59.3679C50.0437 59.3474 50.0804 59.3356 50.1113 59.3136C50.3168 59.1773 50.5082 59.0208 50.6826 58.8465L54.8362 54.6929C55.0105 54.5185 55.167 54.3271 55.3033 54.1215C55.3253 54.0878 55.3385 54.051 55.3591 54.0173C55.4679 53.8463 55.5623 53.6664 55.6411 53.4797V53.4591C55.9932 52.5861 55.9932 51.6106 55.6411 50.7375L55.6499 50.7317ZM28.0536 24.7833L47.9698 44.701L46.9329 45.7379L28.7042 27.5078C28.4988 27.3035 28.336 27.0604 28.2253 26.7926C28.1146 26.5248 28.0582 26.2377 28.0594 25.948L28.0536 24.7833ZM27.6658 28.5477L45.8945 46.7763L42.7763 49.8945L24.5477 31.6658C24.3407 31.4607 24.1765 31.2166 24.0646 30.9476C23.9527 30.6786 23.8952 30.39 23.8955 30.0987V28.6299C23.8955 28.4351 23.9729 28.2484 24.1106 28.1106C24.2483 27.9729 24.4351 27.8955 24.6299 27.8955H26.0987C26.39 27.8952 26.6786 27.9527 26.9476 28.0646C27.2166 28.1766 27.4607 28.3407 27.6658 28.5477ZM15.0963 19.0963L17.5593 20.0436C17.2033 20.6782 16.6774 21.2011 16.0407 21.5535L15.0963 19.0963ZM16.565 22.915C17.5826 22.404 18.4113 21.5825 18.9312 20.5694L26.5848 23.5187V25.9436C26.5889 26.1233 26.6061 26.3025 26.6362 26.4797C26.4586 26.4489 26.2789 26.4312 26.0987 26.4268H24.6299C24.0456 26.4268 23.4852 26.6589 23.0721 27.0721C22.6589 27.4852 22.4268 28.0456 22.4268 28.6299V30.0987C22.4312 30.2789 22.4489 30.4586 22.4797 30.6362C22.3039 30.6062 22.1262 30.589 21.948 30.5848H19.5187L16.565 22.915ZM40.6995 51.9669L20.7833 32.0536H21.9465C22.2357 32.0528 22.5223 32.1094 22.7895 32.2201C23.0567 32.3308 23.2994 32.4933 23.5034 32.6984L41.7379 50.9329L40.6995 51.9669ZM41.7379 53.0053L43.2566 51.4866C43.2713 51.4749 43.2874 51.4704 43.3021 51.4572C43.3168 51.444 43.3198 51.4264 43.3315 51.4117L47.4132 47.33C47.4278 47.3183 47.444 47.3139 47.4587 47.3007C47.4734 47.2874 47.4763 47.2698 47.4881 47.2551L49.0068 45.7364L50.1656 46.8953L42.8953 54.1656L41.7379 53.0053ZM53.8008 53.6457L49.6471 57.7993C49.4425 58.004 49.1996 58.1664 48.9322 58.2772C48.6648 58.388 48.3782 58.4451 48.0888 58.4451C47.7993 58.4451 47.5127 58.388 47.2454 58.2772C46.978 58.1664 46.735 58.004 46.5304 57.7993L43.9337 55.2025L51.204 47.9322L53.8008 50.529C54.006 50.7335 54.1689 50.9766 54.2801 51.2442C54.3913 51.5118 54.4486 51.7987 54.4487 52.0885C54.4489 52.3783 54.3918 52.6652 54.2809 52.933C54.17 53.2007 54.0073 53.4439 53.8022 53.6486L53.8008 53.6457Z" fill="#F4F4F4"/>
</svg>
