<svg width="53" height="49" viewBox="0 0 53 49" fill="none" xmlns="http://www.w3.org/2000/svg">
<ellipse cx="26.5" cy="24.6799" rx="26.5" ry="24.3201" fill="#93C572"/>
<mask id="path-2-outside-1_2563_273" maskUnits="userSpaceOnUse" x="5.59334" y="5.26969" width="41.9756" height="38.5489" fill="black">
<rect fill="white" x="5.59334" y="5.26969" width="41.9756" height="38.5489"/>
<path d="M30.4588 38.3797L30.4669 38.3659C30.5167 38.2529 30.5563 38.1368 30.5853 38.0187C30.5915 37.9957 30.603 37.9737 30.6086 37.9502C30.6412 37.8058 30.6582 37.6595 30.6593 37.5134L30.6793 34.9035L30.6928 33.0742L30.6949 33.0649L30.693 33.0557L30.8286 14.8979C30.8287 14.8395 30.8159 14.7822 30.7911 14.7296L30.7864 14.7255L27.0595 7.04315C27.0228 6.96778 26.9626 6.90489 26.8862 6.86209C26.8097 6.81928 26.7203 6.79841 26.6288 6.80199C26.5372 6.80556 26.4475 6.83344 26.3704 6.88225C26.2932 6.93105 26.2321 6.99869 26.1943 7.07697L22.3489 15.054L22.3441 15.0585C22.3185 15.1131 22.3049 15.1714 22.304 15.2298L22.1697 33.3876L22.1677 33.397L22.1696 33.4061L22.1561 35.2354L22.1374 37.8453C22.1364 37.9913 22.1512 38.1364 22.1818 38.2783C22.1863 38.3009 22.1975 38.3207 22.2034 38.3432C22.2308 38.4598 22.2689 38.5735 22.3173 38.6831L22.3259 38.6982C22.5595 39.2014 23.0008 39.5921 23.557 39.7883L23.5663 39.7965C23.6877 39.8373 23.8131 39.8684 23.9412 39.8895C23.9653 39.8935 23.9873 39.9031 24.0114 39.9058C24.167 39.9287 24.3255 39.9372 24.4845 39.931L28.272 39.783C28.431 39.7767 28.5897 39.7559 28.7458 39.7208C28.7713 39.7149 28.7941 39.7041 28.8189 39.6976C28.9467 39.6666 29.072 39.6259 29.1934 39.576L29.2028 39.567C29.763 39.327 30.2108 38.9011 30.4521 38.3787L30.4588 38.3797ZM29.8733 15.9849L29.7492 32.6671L28.8037 32.7041L28.9173 17.4353C28.9181 17.2637 28.956 17.0923 29.0287 16.931C29.1015 16.7697 29.2078 16.6218 29.3413 16.4958L29.8733 15.9849ZM27.9698 17.473L27.8568 32.7411L25.0135 32.8522L25.1264 17.5841C25.1269 17.4116 25.1646 17.2392 25.2374 17.0768C25.3102 16.9145 25.4166 16.7655 25.5505 16.6384L26.2247 15.9971C26.3141 15.9121 26.4349 15.8615 26.5605 15.8566C26.6861 15.8517 26.8062 15.8928 26.8944 15.9709L27.5595 16.5599C27.6915 16.6766 27.7958 16.8173 27.8663 16.9741C27.9367 17.1308 27.9719 17.3004 27.9698 17.473ZM26.6163 8.30631L27.2968 9.70757C26.8443 9.84187 26.3661 9.85928 25.9161 9.75785L26.6163 8.30631ZM25.5285 10.5626C26.2239 10.7475 26.9762 10.7211 27.6767 10.4872L29.7887 14.8438L28.6756 15.9025C28.595 15.9826 28.5205 16.0678 28.4528 16.1572C28.3865 16.0726 28.3132 15.9928 28.2336 15.9186L27.5686 15.3297C27.304 15.0954 26.9437 14.972 26.5669 14.9867C26.1902 15.0015 25.8278 15.1531 25.5596 15.4082L24.8854 16.0495C24.8047 16.1299 24.7302 16.2155 24.6626 16.3054C24.5968 16.2218 24.5242 16.143 24.4454 16.0697L23.3454 15.0956L25.5285 10.5626ZM23.1218 32.9243L23.2438 16.244L23.7706 16.7104C23.9019 16.8261 24.0057 16.9657 24.0759 17.1211C24.1461 17.2766 24.1813 17.4449 24.1796 17.6162L24.0666 32.8892L23.1218 32.9243ZM23.1153 33.7941L24.5002 33.7399C24.5122 33.7407 24.5215 33.7452 24.5343 33.7454C24.547 33.7455 24.5564 33.739 24.5685 33.7373L28.2904 33.5918C28.3024 33.5925 28.3117 33.5971 28.3245 33.5972C28.3372 33.5973 28.3466 33.5908 28.3587 33.5891L29.7435 33.535L29.7363 34.5056L23.1068 34.7647L23.1153 33.7941ZM28.2838 38.9105L24.4963 39.0586C24.3097 39.0659 24.1251 39.0394 23.9532 38.9806C23.7812 38.9217 23.6253 38.8317 23.4942 38.7157C23.3631 38.5996 23.2595 38.4598 23.1893 38.3042C23.1191 38.1486 23.0836 37.9803 23.085 37.8089L23.1011 35.6339L29.7306 35.3747L29.7145 37.5497C29.7135 37.7214 29.6757 37.8928 29.6032 38.0542C29.5307 38.2156 29.425 38.3639 29.292 38.4905C29.1591 38.617 29.0015 38.7195 28.8284 38.7919C28.6553 38.8643 28.47 38.9052 28.2831 38.9124L28.2838 38.9105Z"/>
</mask>
<path d="M30.4588 38.3797L30.4669 38.3659C30.5167 38.2529 30.5563 38.1368 30.5853 38.0187C30.5915 37.9957 30.603 37.9737 30.6086 37.9502C30.6412 37.8058 30.6582 37.6595 30.6593 37.5134L30.6793 34.9035L30.6928 33.0742L30.6949 33.0649L30.693 33.0557L30.8286 14.8979C30.8287 14.8395 30.8159 14.7822 30.7911 14.7296L30.7864 14.7255L27.0595 7.04315C27.0228 6.96778 26.9626 6.90489 26.8862 6.86209C26.8097 6.81928 26.7203 6.79841 26.6288 6.80199C26.5372 6.80556 26.4475 6.83344 26.3704 6.88225C26.2932 6.93105 26.2321 6.99869 26.1943 7.07697L22.3489 15.054L22.3441 15.0585C22.3185 15.1131 22.3049 15.1714 22.304 15.2298L22.1697 33.3876L22.1677 33.397L22.1696 33.4061L22.1561 35.2354L22.1374 37.8453C22.1364 37.9913 22.1512 38.1364 22.1818 38.2783C22.1863 38.3009 22.1975 38.3207 22.2034 38.3432C22.2308 38.4598 22.2689 38.5735 22.3173 38.6831L22.3259 38.6982C22.5595 39.2014 23.0008 39.5921 23.557 39.7883L23.5663 39.7965C23.6877 39.8373 23.8131 39.8684 23.9412 39.8895C23.9653 39.8935 23.9873 39.9031 24.0114 39.9058C24.167 39.9287 24.3255 39.9372 24.4845 39.931L28.272 39.783C28.431 39.7767 28.5897 39.7559 28.7458 39.7208C28.7713 39.7149 28.7941 39.7041 28.8189 39.6976C28.9467 39.6666 29.072 39.6259 29.1934 39.576L29.2028 39.567C29.763 39.327 30.2108 38.9011 30.4521 38.3787L30.4588 38.3797ZM29.8733 15.9849L29.7492 32.6671L28.8037 32.7041L28.9173 17.4353C28.9181 17.2637 28.956 17.0923 29.0287 16.931C29.1015 16.7697 29.2078 16.6218 29.3413 16.4958L29.8733 15.9849ZM27.9698 17.473L27.8568 32.7411L25.0135 32.8522L25.1264 17.5841C25.1269 17.4116 25.1646 17.2392 25.2374 17.0768C25.3102 16.9145 25.4166 16.7655 25.5505 16.6384L26.2247 15.9971C26.3141 15.9121 26.4349 15.8615 26.5605 15.8566C26.6861 15.8517 26.8062 15.8928 26.8944 15.9709L27.5595 16.5599C27.6915 16.6766 27.7958 16.8173 27.8663 16.9741C27.9367 17.1308 27.9719 17.3004 27.9698 17.473ZM26.6163 8.30631L27.2968 9.70757C26.8443 9.84187 26.3661 9.85928 25.9161 9.75785L26.6163 8.30631ZM25.5285 10.5626C26.2239 10.7475 26.9762 10.7211 27.6767 10.4872L29.7887 14.8438L28.6756 15.9025C28.595 15.9826 28.5205 16.0678 28.4528 16.1572C28.3865 16.0726 28.3132 15.9928 28.2336 15.9186L27.5686 15.3297C27.304 15.0954 26.9437 14.972 26.5669 14.9867C26.1902 15.0015 25.8278 15.1531 25.5596 15.4082L24.8854 16.0495C24.8047 16.1299 24.7302 16.2155 24.6626 16.3054C24.5968 16.2218 24.5242 16.143 24.4454 16.0697L23.3454 15.0956L25.5285 10.5626ZM23.1218 32.9243L23.2438 16.244L23.7706 16.7104C23.9019 16.8261 24.0057 16.9657 24.0759 17.1211C24.1461 17.2766 24.1813 17.4449 24.1796 17.6162L24.0666 32.8892L23.1218 32.9243ZM23.1153 33.7941L24.5002 33.7399C24.5122 33.7407 24.5215 33.7452 24.5343 33.7454C24.547 33.7455 24.5564 33.739 24.5685 33.7373L28.2904 33.5918C28.3024 33.5925 28.3117 33.5971 28.3245 33.5972C28.3372 33.5973 28.3466 33.5908 28.3587 33.5891L29.7435 33.535L29.7363 34.5056L23.1068 34.7647L23.1153 33.7941ZM28.2838 38.9105L24.4963 39.0586C24.3097 39.0659 24.1251 39.0394 23.9532 38.9806C23.7812 38.9217 23.6253 38.8317 23.4942 38.7157C23.3631 38.5996 23.2595 38.4598 23.1893 38.3042C23.1191 38.1486 23.0836 37.9803 23.085 37.8089L23.1011 35.6339L29.7306 35.3747L29.7145 37.5497C29.7135 37.7214 29.6757 37.8928 29.6032 38.0542C29.5307 38.2156 29.425 38.3639 29.292 38.4905C29.1591 38.617 29.0015 38.7195 28.8284 38.7919C28.6553 38.8643 28.47 38.9052 28.2831 38.9124L28.2838 38.9105Z" fill="#F4F4F4"/>
<path d="M30.4588 38.3797L30.4669 38.3659C30.5167 38.2529 30.5563 38.1368 30.5853 38.0187C30.5915 37.9957 30.603 37.9737 30.6086 37.9502C30.6412 37.8058 30.6582 37.6595 30.6593 37.5134L30.6793 34.9035L30.6928 33.0742L30.6949 33.0649L30.693 33.0557L30.8286 14.8979C30.8287 14.8395 30.8159 14.7822 30.7911 14.7296L30.7864 14.7255L27.0595 7.04315C27.0228 6.96778 26.9626 6.90489 26.8862 6.86209C26.8097 6.81928 26.7203 6.79841 26.6288 6.80199C26.5372 6.80556 26.4475 6.83344 26.3704 6.88225C26.2932 6.93105 26.2321 6.99869 26.1943 7.07697L22.3489 15.054L22.3441 15.0585C22.3185 15.1131 22.3049 15.1714 22.304 15.2298L22.1697 33.3876L22.1677 33.397L22.1696 33.4061L22.1561 35.2354L22.1374 37.8453C22.1364 37.9913 22.1512 38.1364 22.1818 38.2783C22.1863 38.3009 22.1975 38.3207 22.2034 38.3432C22.2308 38.4598 22.2689 38.5735 22.3173 38.6831L22.3259 38.6982C22.5595 39.2014 23.0008 39.5921 23.557 39.7883L23.5663 39.7965C23.6877 39.8373 23.8131 39.8684 23.9412 39.8895C23.9653 39.8935 23.9873 39.9031 24.0114 39.9058C24.167 39.9287 24.3255 39.9372 24.4845 39.931L28.272 39.783C28.431 39.7767 28.5897 39.7559 28.7458 39.7208C28.7713 39.7149 28.7941 39.7041 28.8189 39.6976C28.9467 39.6666 29.072 39.6259 29.1934 39.576L29.2028 39.567C29.763 39.327 30.2108 38.9011 30.4521 38.3787L30.4588 38.3797ZM29.8733 15.9849L29.7492 32.6671L28.8037 32.7041L28.9173 17.4353C28.9181 17.2637 28.956 17.0923 29.0287 16.931C29.1015 16.7697 29.2078 16.6218 29.3413 16.4958L29.8733 15.9849ZM27.9698 17.473L27.8568 32.7411L25.0135 32.8522L25.1264 17.5841C25.1269 17.4116 25.1646 17.2392 25.2374 17.0768C25.3102 16.9145 25.4166 16.7655 25.5505 16.6384L26.2247 15.9971C26.3141 15.9121 26.4349 15.8615 26.5605 15.8566C26.6861 15.8517 26.8062 15.8928 26.8944 15.9709L27.5595 16.5599C27.6915 16.6766 27.7958 16.8173 27.8663 16.9741C27.9367 17.1308 27.9719 17.3004 27.9698 17.473ZM26.6163 8.30631L27.2968 9.70757C26.8443 9.84187 26.3661 9.85928 25.9161 9.75785L26.6163 8.30631ZM25.5285 10.5626C26.2239 10.7475 26.9762 10.7211 27.6767 10.4872L29.7887 14.8438L28.6756 15.9025C28.595 15.9826 28.5205 16.0678 28.4528 16.1572C28.3865 16.0726 28.3132 15.9928 28.2336 15.9186L27.5686 15.3297C27.304 15.0954 26.9437 14.972 26.5669 14.9867C26.1902 15.0015 25.8278 15.1531 25.5596 15.4082L24.8854 16.0495C24.8047 16.1299 24.7302 16.2155 24.6626 16.3054C24.5968 16.2218 24.5242 16.143 24.4454 16.0697L23.3454 15.0956L25.5285 10.5626ZM23.1218 32.9243L23.2438 16.244L23.7706 16.7104C23.9019 16.8261 24.0057 16.9657 24.0759 17.1211C24.1461 17.2766 24.1813 17.4449 24.1796 17.6162L24.0666 32.8892L23.1218 32.9243ZM23.1153 33.7941L24.5002 33.7399C24.5122 33.7407 24.5215 33.7452 24.5343 33.7454C24.547 33.7455 24.5564 33.739 24.5685 33.7373L28.2904 33.5918C28.3024 33.5925 28.3117 33.5971 28.3245 33.5972C28.3372 33.5973 28.3466 33.5908 28.3587 33.5891L29.7435 33.535L29.7363 34.5056L23.1068 34.7647L23.1153 33.7941ZM28.2838 38.9105L24.4963 39.0586C24.3097 39.0659 24.1251 39.0394 23.9532 38.9806C23.7812 38.9217 23.6253 38.8317 23.4942 38.7157C23.3631 38.5996 23.2595 38.4598 23.1893 38.3042C23.1191 38.1486 23.0836 37.9803 23.085 37.8089L23.1011 35.6339L29.7306 35.3747L29.7145 37.5497C29.7135 37.7214 29.6757 37.8928 29.6032 38.0542C29.5307 38.2156 29.425 38.3639 29.292 38.4905C29.1591 38.617 29.0015 38.7195 28.8284 38.7919C28.6553 38.8643 28.47 38.9052 28.2831 38.9124L28.2838 38.9105Z" stroke="#F4F4F4" mask="url(#path-2-outside-1_2563_273)"/>
</svg>
