<svg width="72" height="72" viewBox="0 0 72 72" fill="none" xmlns="http://www.w3.org/2000/svg">
<path d="M36 72C55.8823 72 72 55.8823 72 36C72 16.1177 55.8823 0 36 0C16.1177 0 0 16.1177 0 36C0 55.8823 16.1177 72 36 72Z" fill="#103713" fill-opacity="0.8"/>
<path d="M47.875 13H27.25C25.062 13 22.9635 13.8639 21.4164 15.4017C19.8692 16.9395 19 19.0252 19 21.2V45.8C19 47.9748 19.8692 50.0605 21.4164 51.5983C22.9635 53.1361 25.062 54 27.25 54H47.875C48.969 54 50.0182 53.568 50.7918 52.7991C51.5654 52.0302 52 50.9874 52 49.9V17.1C52 16.0126 51.5654 14.9698 50.7918 14.2009C50.0182 13.432 48.969 13 47.875 13ZM23.125 21.2C23.125 20.1126 23.5596 19.0698 24.3332 18.3009C25.1068 17.532 26.156 17.1 27.25 17.1H47.875V37.6H27.25C25.796 37.6061 24.3707 38.0027 23.125 38.748V21.2ZM27.25 49.9C26.156 49.9 25.1068 49.468 24.3332 48.6991C23.5596 47.9302 23.125 46.8874 23.125 45.8C23.125 44.7126 23.5596 43.6698 24.3332 42.9009C25.1068 42.132 26.156 41.7 27.25 41.7H47.875V49.9H27.25ZM31.375 25.3H39.625C40.172 25.3 40.6966 25.084 41.0834 24.6996C41.4702 24.3151 41.6875 23.7937 41.6875 23.25C41.6875 22.7063 41.4702 22.1849 41.0834 21.8004C40.6966 21.416 40.172 21.2 39.625 21.2H31.375C30.828 21.2 30.3034 21.416 29.9166 21.8004C29.5298 22.1849 29.3125 22.7063 29.3125 23.25C29.3125 23.7937 29.5298 24.3151 29.9166 24.6996C30.3034 25.084 30.828 25.3 31.375 25.3Z" fill="#F4F4F4"/>
</svg>
