<svg width="20" height="25" viewBox="0 0 20 25" fill="none" xmlns="http://www.w3.org/2000/svg">
<path d="M14.5833 19.6672C14.871 19.6672 15.1042 19.434 15.1042 19.1464C15.1042 18.8587 14.871 18.6255 14.5833 18.6255C14.2957 18.6255 14.0625 18.8587 14.0625 19.1464C14.0625 19.434 14.2957 19.6672 14.5833 19.6672Z" fill="#93C572"/>
<path d="M12.5812 6.7979C12.7623 6.25185 12.4664 5.66238 11.9204 5.48128C11.3743 5.30018 10.7849 5.59604 10.6038 6.14209C10.4227 6.68814 10.7185 7.27761 11.2646 7.4587C11.8106 7.6398 12.4001 7.34395 12.5812 6.7979Z" fill="#93C572"/>
<path d="M17.1875 10.2922H16.9271L18.6979 5.03182C18.9583 4.19849 18.5417 3.31307 17.7083 3.05265L8.80208 0.0839031C8.02083 -0.176514 7.23958 0.18807 6.875 0.917236H1.5625C1.14583 0.917236 0.729167 1.07349 0.46875 1.38599C0.15625 1.6464 0 2.06307 0 2.47974L0.0520833 12.3756V12.4277C-5.04466e-08 12.5839 0 12.7402 0 12.8964V22.2714C0 23.7297 1.14583 24.8756 2.60417 24.8756H17.1875C18.6458 24.8756 19.7917 23.7297 19.7917 22.2714V12.8964C19.7917 11.4381 18.6458 10.2922 17.1875 10.2922ZM18.75 20.7089H14.5312C13.6979 20.7089 13.0208 20.0318 13.0208 19.1464C13.0208 18.261 13.6979 17.5839 14.5312 17.5839H18.75V20.7089ZM8.4375 1.07349L17.3437 4.04224C17.5 4.09432 17.6042 4.19849 17.6562 4.30265C17.7083 4.40682 17.7083 4.56307 17.6562 4.66724L15.7812 10.2922H14.6875L15.8333 6.85474C15.8854 6.69849 15.8854 6.59432 15.7812 6.43807C15.7292 6.3339 15.625 6.22974 15.4688 6.17765C14.9479 6.0214 14.6354 5.3964 14.7917 4.87557C14.8958 4.61515 14.7396 4.30265 14.4792 4.19849L10.5208 2.8964C10.3646 2.84432 10.2604 2.84432 10.1042 2.94849C10 3.00057 9.89583 3.10474 9.84375 3.26099C9.6875 3.78182 9.0625 4.09432 8.54167 3.93807C8.28125 3.8339 7.96875 3.99015 7.86458 4.25057L5.83333 10.3443H4.73958L7.8125 1.38599C7.86458 1.12557 8.17708 0.96932 8.4375 1.07349ZM7.03125 10.2922L8.80208 4.97974C9.58333 5.03182 10.2604 4.66724 10.6771 4.04224L13.75 5.0839C13.6979 5.81307 14.0625 6.54224 14.6875 6.9589L13.5938 10.2922H7.03125ZM3.125 10.2922V5.55265C3.85417 5.34432 4.42708 4.7714 4.63542 4.04224H5.83333L3.75 10.2922H3.125ZM1.19792 2.11515C1.30208 2.01099 1.40625 1.9589 1.5625 1.9589H6.51042L6.14583 3.00057H4.16667C4.01042 3.00057 3.90625 3.05265 3.80208 3.15682C3.69792 3.2089 3.64583 3.36515 3.64583 3.46932C3.64583 4.04224 3.17708 4.51099 2.60417 4.51099C2.29167 4.51099 2.08333 4.71932 2.08333 5.03182V10.3443C1.71875 10.3964 1.35417 10.6047 1.04167 10.8131V2.47974C1.04167 2.32349 1.09375 2.21932 1.19792 2.11515ZM18.75 22.2714C18.75 23.1568 18.0729 23.8339 17.1875 23.8339H2.60417C1.71875 23.8339 1.04167 23.1568 1.04167 22.2714V12.8964C1.04167 12.011 1.71875 11.3339 2.60417 11.3339H17.1875C18.0729 11.3339 18.75 12.011 18.75 12.8964V16.5422H14.5312C13.125 16.5422 11.9792 17.6881 11.9792 19.1464C11.9792 20.6047 13.125 21.7506 14.5312 21.7506H18.75V22.2714Z" fill="#93C572"/>
</svg>
