<svg width="126" height="126" viewBox="0 0 126 126" fill="none" xmlns="http://www.w3.org/2000/svg">
<circle cx="63" cy="63" r="63" fill="#93C572"/>
<g clip-path="url(#clip0_1853_312)">
<path d="M68.0311 31.6438H68.0287H32.5374L37.5734 27.386H73.2475C73.7034 27.386 74.1405 27.5671 74.4629 27.8894C74.7852 28.2117 74.9663 28.6489 74.9663 29.1047V54.075C74.9663 54.4677 75.1222 54.8443 75.3999 55.1219C75.6775 55.3995 76.0541 55.5555 76.4467 55.5555C76.8394 55.5555 77.2159 55.3995 77.4936 55.1219C77.7712 54.8443 77.9272 54.4677 77.9272 54.075V29.1047C77.9272 27.8636 77.4342 26.6733 76.5566 25.7957C75.6789 24.9181 74.4886 24.425 73.2475 24.425H37.0324C36.6825 24.4249 36.344 24.5487 36.0769 24.7745L36.0767 24.7747L28.7677 30.9664L28.7586 30.9741L28.7503 30.9826C28.5593 31.1785 28.4089 31.41 28.3076 31.664C28.1776 31.8806 28.1061 32.1274 28.1002 32.3802L28.1002 32.3802V32.386L28.1002 75.0422L28.1002 75.0432C28.1017 75.4349 28.2584 75.8099 28.5359 76.0863C28.8133 76.3626 29.189 76.5178 29.5806 76.5178C29.9733 76.5178 30.3498 76.3618 30.6275 76.0842C30.9051 75.8065 31.0611 75.43 31.0611 75.0373V34.6134L67.8033 34.6765V54.9429C67.8033 55.3356 67.9593 55.7121 68.2369 55.9898C68.5146 56.2674 68.8911 56.4234 69.2838 56.4234C69.6764 56.4234 70.053 56.2674 70.3306 55.9898C70.6083 55.7121 70.7642 55.3356 70.7642 54.9429V34.4279C70.7706 33.6967 70.4865 32.9927 69.9743 32.4707C69.4618 31.9484 68.7629 31.651 68.0311 31.6438ZM49.0762 85.4957H32.0334C31.7974 85.4957 31.6297 85.4949 31.4968 85.4731C31.372 85.4525 31.3076 85.4176 31.2627 85.3689C31.2128 85.3147 31.1583 85.2123 31.1192 85.0005C31.0803 84.7899 31.0611 84.4969 31.0611 84.087V80.1413C31.0611 79.7487 30.9051 79.3721 30.6275 79.0945C30.3498 78.8168 29.9733 78.6608 29.5806 78.6608C29.188 78.6608 28.8114 78.8168 28.5338 79.0945C28.2561 79.3721 28.1002 79.7487 28.1002 80.1413V84.0654C28.0054 84.6198 28.0361 85.1884 28.1901 85.7295C28.346 86.2778 28.6245 86.7834 29.0044 87.2084C29.3843 87.6333 29.8558 87.9664 30.3833 88.1826C30.9082 88.3977 31.475 88.4914 32.0412 88.4566H49.0762C49.4688 88.4566 49.8454 88.3006 50.123 88.023C50.4007 87.7454 50.5567 87.3688 50.5567 86.9761C50.5567 86.5835 50.4007 86.2069 50.123 85.9293C49.8454 85.6517 49.4688 85.4957 49.0762 85.4957Z" fill="#F4F4F4" stroke="#F4F4F4" stroke-width="0.5"/>
<path d="M72.88 54.7531H72.8787C72.4874 54.7511 72.1129 54.5942 71.8369 54.3167C71.561 54.0393 71.4061 53.664 71.4061 53.2727V31.9597C71.4058 31.7081 71.3058 31.467 71.128 31.289C70.9504 31.1111 70.7094 31.0108 70.4579 31.01C70.4579 31.01 70.4578 31.01 70.4578 31.01M72.88 54.7531L70.4585 30.76L70.4578 31.01M72.88 54.7531C73.2727 54.7531 73.6492 54.5972 73.9269 54.3195C74.2045 54.0419 74.3605 53.6653 74.3605 53.2727V31.9593V31.959C74.3591 30.9237 73.9477 29.931 73.2163 29.1983C72.4848 28.4655 71.4929 28.0523 70.4576 28.0491L70.4573 28.0491L39.7022 27.9851H39.7017C39.309 27.9851 38.9325 28.1411 38.6548 28.4187C38.3772 28.6964 38.2212 29.0729 38.2212 29.4656C38.2212 29.8582 38.3772 30.2348 38.6548 30.5124C38.9324 30.79 39.3088 30.946 39.7014 30.946L72.88 54.7531ZM70.4578 31.01L39.7017 30.946L70.4578 31.01ZM88.3472 89.3918L88.3472 89.3894L88.3472 79.1585C88.3472 78.7658 88.5032 78.3893 88.7808 78.1116C89.0584 77.834 89.4348 77.6781 89.8273 77.678C89.8274 77.678 89.8276 77.678 89.8277 77.678V77.928L88.3472 89.3918ZM88.3472 89.3918C88.3491 89.591 88.3025 89.7877 88.2113 89.9648C87.5762 91.1756 84.4012 95.464 71.3346 95.464C58.2699 95.464 55.0932 91.1818 54.4493 89.9676C54.3586 89.791 54.312 89.595 54.3137 89.3964V89.3943M88.3472 89.3918L54.3137 89.3943M54.3137 89.3943V79.6802C54.3137 79.2875 54.1577 78.911 53.8801 78.6333C53.6024 78.3557 53.2259 78.1997 52.8332 78.1997C52.4406 78.1997 52.064 78.3557 51.7864 78.6333C51.5087 78.911 51.3528 79.2875 51.3528 79.6802V89.3888C51.3492 90.0672 51.5096 90.7365 51.8202 91.3397L51.8215 91.3422M54.3137 89.3943L51.8215 91.3422M51.8215 91.3422C52.9832 93.5364 57.1631 98.4249 71.3346 98.4249C85.5056 98.4249 89.6845 93.5416 90.8381 91.3482L90.8387 91.347M51.8215 91.3422L90.8387 91.347M90.8387 91.347C91.1519 90.7437 91.3136 90.0733 91.3098 89.3935L90.8387 91.347Z" fill="#F4F4F4" stroke="#F4F4F4" stroke-width="0.5"/>
<path d="M106.337 67.1592L106.338 67.1582L73.7848 56.2843C73.7847 56.2842 73.7845 56.2842 73.7843 56.2841L73.7843 56.2841L73.7051 56.5212C73.4565 56.4376 73.1874 56.4376 72.9389 56.5212M106.337 67.1592L72.8609 56.2837L72.8626 56.2832L72.9389 56.5212M106.337 67.1592C106.628 67.2569 106.882 67.4425 107.063 67.6906C107.244 67.9396 107.343 68.239 107.347 68.5471C107.35 68.8552 107.257 69.1566 107.081 69.4094C106.905 69.6622 106.654 69.8537 106.364 69.9572L99.2273 72.5049V78.9418C100.042 79.2376 100.753 79.7687 101.268 80.4696C101.819 81.2201 102.117 82.1265 102.12 83.0577V83.0583V85.5423C102.12 86.7085 101.656 87.8271 100.832 88.6518C100.007 89.4764 98.8885 89.9398 97.7222 89.9398C96.5559 89.9398 95.4374 89.4764 94.6127 88.6518C93.788 87.8271 93.3247 86.7085 93.3247 85.5423V83.0616V83.0608C93.3278 82.121 93.6326 81.2071 94.1941 80.4535C94.7184 79.75 95.4406 79.221 96.2663 78.9328V73.5628L71.4318 82.4307L106.337 67.1592ZM72.9389 56.5212L72.8591 56.2843M72.9389 56.5212L72.8591 56.2843M72.8591 56.2843L36.193 68.0399L36.1911 68.0405C35.8966 68.1374 35.6399 68.3243 35.4571 68.5748C35.2744 68.8253 35.1748 69.1268 35.1724 69.4368C35.17 69.7469 35.2649 70.0499 35.4438 70.3032C35.6226 70.5565 35.8764 70.7473 36.1694 70.8488L36.1712 70.8494L70.4603 82.4388C70.6126 82.4903 70.7722 82.5169 70.933 82.5176L70.9345 82.5176C71.1039 82.5173 71.272 82.4879 71.4316 82.4308L72.8591 56.2843ZM99.1522 85.5423C99.1522 85.9233 99.0008 86.2886 98.7314 86.5581C98.462 86.8275 98.0966 86.9788 97.7156 86.9788C97.3346 86.9788 96.9692 86.8275 96.6998 86.5581C96.4304 86.2886 96.2791 85.9233 96.2791 85.5423V83.0583C96.2791 82.8697 96.3162 82.6829 96.3884 82.5086C96.4606 82.3343 96.5664 82.1759 96.6998 82.0425C96.8332 81.9091 96.9916 81.8033 97.1659 81.7311C97.3402 81.6589 97.527 81.6218 97.7156 81.6218C97.9043 81.6218 98.0911 81.6589 98.2654 81.7311C98.4397 81.8033 98.598 81.9091 98.7314 82.0425C98.8648 82.1759 98.9706 82.3343 99.0428 82.5086C99.115 82.6829 99.1522 82.8697 99.1522 83.0583V85.5423ZM73.3048 59.2436L101.336 68.6075L97.5411 69.9641L71.4936 67.1536C71.2989 67.1283 71.101 67.1421 70.9116 67.194C70.7212 67.2462 70.5431 67.336 70.3879 67.458C70.2328 67.5801 70.1035 67.7319 70.0079 67.9047C69.9123 68.0774 69.8521 68.2675 69.8311 68.4638C69.81 68.6601 69.8284 68.8586 69.8852 69.0477C69.942 69.2368 70.0361 69.4126 70.1619 69.5648C70.2876 69.717 70.4426 69.8425 70.6176 69.934C70.7916 70.0249 70.982 70.0803 71.1776 70.0969L91.1377 72.2502L70.9187 79.4731L41.3782 69.4867L73.3048 59.2436Z" fill="#F4F4F4" stroke="#F4F4F4" stroke-width="0.5"/>
</g>
<defs>
<clipPath id="clip0_1853_312">
<rect width="78.75" height="78.75" fill="white" transform="translate(28.3501 22.05)"/>
</clipPath>
</defs>
</svg>
