<svg width="45" height="47" viewBox="0 0 45 47" fill="none" xmlns="http://www.w3.org/2000/svg">
<path d="M22.5 47C34.9264 47 45 36.4787 45 23.5C45 10.5213 34.9264 0 22.5 0C10.0736 0 0 10.5213 0 23.5C0 36.4787 10.0736 47 22.5 47Z" fill="#E0BF56"/>
<path d="M29.148 10.4278C27.8905 9.35053 26.4179 8.57927 24.8378 8.17028C23.2576 7.76128 21.6098 7.72486 20.0144 8.06369C17.8901 8.51062 15.9412 9.60473 14.4148 11.2072C12.8885 12.8097 11.8536 14.8483 11.4413 17.0644C11.1403 18.726 11.195 20.4363 11.6015 22.0733C12.0081 23.7104 12.7564 25.2338 13.7931 26.535C14.7553 27.6659 15.3068 29.1121 15.3519 30.6224V34.8948C15.3519 36.028 15.784 37.1147 16.5533 37.9159C17.3225 38.7172 18.3659 39.1673 19.4538 39.1673H24.923C26.0109 39.1673 27.0543 38.7172 27.8235 37.9159C28.5928 37.1147 29.025 36.028 29.025 34.8948V30.893C29.0709 29.2255 29.659 27.6237 30.6931 26.3499C32.5049 24.0154 33.359 21.0304 33.0697 18.0437C32.7804 15.0569 31.3711 12.3098 29.148 10.3993V10.4278ZM26.2904 34.8948C26.2904 35.2726 26.1463 35.6348 25.8899 35.9019C25.6335 36.169 25.2857 36.319 24.923 36.319H19.4538C19.0912 36.319 18.7434 36.169 18.487 35.9019C18.2305 35.6348 18.0865 35.2726 18.0865 34.8948V33.4707H26.2904V34.8948ZM28.5738 24.5839C27.1989 26.2824 26.3968 28.4036 26.2904 30.6224H23.5557V26.3499C23.5557 25.9722 23.4117 25.6099 23.1553 25.3429C22.8988 25.0758 22.551 24.9257 22.1884 24.9257C21.8258 24.9257 21.478 25.0758 21.2216 25.3429C20.9652 25.6099 20.8211 25.9722 20.8211 26.3499V30.6224H18.0865C18.0504 28.4407 17.2756 26.3424 15.8988 24.6979C14.9904 23.5642 14.3795 22.2048 14.1258 20.752C13.8721 19.2993 13.9841 17.8028 14.4509 16.4086C14.9178 15.0144 15.7235 13.7699 16.7896 12.7966C17.8557 11.8233 19.1458 11.1544 20.534 10.855C21.727 10.5992 22.9598 10.6232 24.1428 10.9255C25.3258 11.2277 26.4294 11.8006 27.3733 12.6024C28.3173 13.4043 29.078 14.415 29.6002 15.5612C30.1224 16.7074 30.393 17.9604 30.3923 19.2291C30.4024 21.18 29.7593 23.0736 28.5738 24.5839Z" fill="#F4F4F4"/>
</svg>
