<svg width="25" height="25" viewBox="0 0 25 25" fill="none" xmlns="http://www.w3.org/2000/svg">
<path d="M9.37516 11.4583C10.1993 11.4583 11.0048 11.214 11.69 10.7561C12.3752 10.2983 12.9093 9.64754 13.2247 8.88618C13.54 8.12482 13.6225 7.28705 13.4618 6.47879C13.301 5.67054 12.9042 4.92811 12.3214 4.34539C11.7387 3.76267 10.9963 3.36583 10.188 3.20506C9.37979 3.04429 8.54201 3.12681 7.78065 3.44217C7.01929 3.75754 6.36855 4.29159 5.91071 4.97679C5.45287 5.662 5.2085 6.46758 5.2085 7.29167C5.2085 8.39674 5.64748 9.45655 6.42888 10.2379C7.21029 11.0193 8.27009 11.4583 9.37516 11.4583ZM9.37516 5.20833C9.78721 5.20833 10.19 5.33052 10.5326 5.55944C10.8752 5.78836 11.1422 6.11373 11.2999 6.49441C11.4576 6.87509 11.4989 7.29398 11.4185 7.69811C11.3381 8.10223 11.1397 8.47345 10.8483 8.76481C10.5569 9.05617 10.1857 9.25459 9.7816 9.33497C9.37747 9.41536 8.95859 9.3741 8.57791 9.21642C8.19723 9.05873 7.87185 8.79171 7.64293 8.44911C7.41402 8.1065 7.29183 7.70371 7.29183 7.29167C7.29183 6.73913 7.51132 6.20923 7.90202 5.81853C8.29272 5.42783 8.82263 5.20833 9.37516 5.20833ZM17.7085 13.5417C18.3266 13.5417 18.9307 13.3584 19.4447 13.015C19.9586 12.6716 20.3591 12.1836 20.5956 11.6126C20.8321 11.0415 20.894 10.4132 20.7735 9.80701C20.6529 9.20082 20.3552 8.644 19.9182 8.20696C19.4812 7.76992 18.9243 7.47229 18.3182 7.35171C17.712 7.23114 17.0836 7.29302 16.5126 7.52955C15.9416 7.76607 15.4535 8.16661 15.1102 8.68051C14.7668 9.19442 14.5835 9.7986 14.5835 10.4167C14.5835 11.2455 14.9127 12.0403 15.4988 12.6264C16.0848 13.2124 16.8797 13.5417 17.7085 13.5417ZM17.7085 9.375C17.9145 9.375 18.1159 9.43609 18.2872 9.55055C18.4585 9.66501 18.592 9.8277 18.6709 10.018C18.7497 10.2084 18.7703 10.4178 18.7301 10.6199C18.69 10.822 18.5907 11.0076 18.4451 11.1532C18.2994 11.2989 18.1138 11.3981 17.9117 11.4383C17.7097 11.4785 17.5002 11.4579 17.3099 11.379C17.1195 11.3002 16.9568 11.1667 16.8424 10.9954C16.7279 10.8241 16.6668 10.6227 16.6668 10.4167C16.6668 10.1404 16.7766 9.87545 16.9719 9.6801C17.1673 9.48475 17.4322 9.375 17.7085 9.375ZM17.7085 14.5833C16.5541 14.5846 15.4329 14.9693 14.521 15.6771C13.5007 14.6608 12.2023 13.9694 10.7896 13.69C9.37682 13.4107 7.913 13.5559 6.58269 14.1074C5.25239 14.6589 4.11518 15.592 3.31448 16.789C2.51378 17.986 2.08544 19.3932 2.0835 20.8333C2.0835 21.1096 2.19324 21.3746 2.38859 21.5699C2.58394 21.7653 2.8489 21.875 3.12516 21.875C3.40143 21.875 3.66638 21.7653 3.86173 21.5699C4.05708 21.3746 4.16683 21.1096 4.16683 20.8333C4.16683 19.452 4.71556 18.1272 5.69232 17.1505C6.66907 16.1737 7.99383 15.625 9.37516 15.625C10.7565 15.625 12.0813 16.1737 13.058 17.1505C14.0348 18.1272 14.5835 19.452 14.5835 20.8333C14.5835 21.1096 14.6932 21.3746 14.8886 21.5699C15.0839 21.7653 15.3489 21.875 15.6252 21.875C15.9014 21.875 16.1664 21.7653 16.3617 21.5699C16.5571 21.3746 16.6668 21.1096 16.6668 20.8333C16.6693 19.613 16.361 18.412 15.771 17.3438C16.2313 16.98 16.7848 16.7532 17.368 16.6892C17.9512 16.6253 18.5407 16.7269 19.0689 16.9823C19.5971 17.2377 20.0427 17.6366 20.3548 18.1335C20.6669 18.6303 20.8328 19.205 20.8335 19.7917C20.8335 20.0679 20.9432 20.3329 21.1386 20.5282C21.3339 20.7236 21.5989 20.8333 21.8752 20.8333C22.1514 20.8333 22.4164 20.7236 22.6117 20.5282C22.8071 20.3329 22.9168 20.0679 22.9168 19.7917C22.9168 18.4103 22.3681 17.0856 21.3913 16.1088C20.4146 15.1321 19.0898 14.5833 17.7085 14.5833Z" fill="#93C572"/>
</svg>
