<svg width="126" height="126" viewBox="0 0 126 126" fill="none" xmlns="http://www.w3.org/2000/svg">
<circle cx="63" cy="63" r="63" fill="#93C572"/>
<path d="M64.5758 51.2987C50.0048 51.2987 38.1752 63.1284 38.1752 77.6993C38.1752 92.2702 50.0048 104.1 64.5758 104.1C79.1467 104.1 90.9763 92.2702 90.9763 77.6993C90.9763 63.1284 79.1467 51.2987 64.5758 51.2987ZM64.5758 54.8811C77.1704 54.8811 87.394 65.1047 87.394 77.6993C87.394 90.2939 77.1704 100.518 64.5758 100.518C51.9811 100.518 41.7575 90.2939 41.7575 77.6993C41.7575 65.1047 51.9811 54.8811 64.5758 54.8811Z" fill="#F4F4F4" stroke="#F4F4F4" stroke-width="0.3"/>
<path d="M30.1219 48.3178H34.8938V56.3715C34.8938 57.0498 35.2769 57.6702 35.8841 57.9729C36.491 58.2756 37.2161 58.2102 37.7586 57.8048L37.7588 57.8046L37.6688 57.6846C37.7588 57.8046 37.7588 57.8046 37.7589 57.8045L37.7592 57.8043L37.7605 57.8034L37.7656 57.7996L37.7856 57.7845L37.8641 57.7256L38.1647 57.5001L39.26 56.6786L42.7828 54.0361C45.4784 52.0143 48.5411 49.7173 50.0094 48.6165C50.2676 48.4234 50.5807 48.3178 50.9038 48.3178H58.0127C60.8141 48.3178 63.0846 46.0473 63.0846 43.2459V30.1219C63.0846 27.3204 60.8141 25.05 58.0127 25.05H30.1219C27.3205 25.05 25.05 27.3204 25.05 30.1219V43.2459C25.05 46.0473 27.3205 48.3178 30.1219 48.3178ZM59.5033 30.1219V43.2459C59.5033 44.0704 58.8354 44.7376 58.0127 44.7376H50.9038C49.8067 44.7376 48.7382 45.0922 47.8605 45.7521L38.475 52.7897V46.5277C38.475 45.5392 37.6728 44.7376 36.6844 44.7376H30.1219C29.2991 44.7376 28.6312 44.0704 28.6312 43.2459V30.1219C28.6312 29.2973 29.2991 28.6301 30.1219 28.6301H58.0127C58.8354 28.6301 59.5033 29.2973 59.5033 30.1219Z" fill="#F4F4F4" stroke="#F4F4F4" stroke-width="0.3"/>
<path d="M94.2583 48.3178V56.3715C94.2583 57.0498 93.8752 57.6702 93.268 57.9729C92.6611 58.2756 91.936 58.2102 91.3935 57.8048L91.3933 57.8046L91.4833 57.6846C91.3933 57.8046 91.3933 57.8046 91.3932 57.8045L91.3929 57.8043L91.3916 57.8034L91.3865 57.7996L91.3665 57.7845L91.288 57.7256L90.9874 57.5001L89.8921 56.6786L86.3693 54.0361C83.6737 52.0143 80.611 49.7173 79.1427 48.6165C78.8845 48.4234 78.5714 48.3178 78.2483 48.3178H71.1394C68.338 48.3178 66.0675 46.0473 66.0675 43.2459V30.1219C66.0675 27.3204 68.338 25.05 71.1394 25.05H99.0302C101.832 25.05 104.102 27.3204 104.102 30.1219V43.2459C104.102 46.0473 101.832 48.3178 99.0302 48.3178H94.2583ZM71.1394 28.6301C70.3167 28.6301 69.6488 29.2973 69.6488 30.1219V43.2459C69.6488 44.0704 70.3167 44.7376 71.1394 44.7376H78.2483C79.3454 44.7376 80.4139 45.0922 81.2916 45.7521L90.6771 52.7897V46.5277C90.6771 45.5392 91.4793 44.7376 92.4677 44.7376H99.0302C99.853 44.7376 100.521 44.0704 100.521 43.2459V30.1219C100.521 29.2973 99.853 28.6301 99.0302 28.6301H71.1394Z" fill="#F4F4F4" stroke="#F4F4F4" stroke-width="0.3"/>
<path d="M45.9752 59.6195L45.9753 59.6195C54.4725 58.8163 59.4222 62.3167 61.0101 65.62C61.8763 67.4211 61.8434 69.243 61.0638 70.6611C59.2022 74.0522 58.8552 76.8347 59.1539 79.2306C59.4095 81.2818 60.1375 83.0535 60.8144 84.7009C60.931 84.9846 61.0461 85.2646 61.1569 85.5417C61.8178 87.1931 62.2223 89.0749 62.3559 90.8233C62.4891 92.5687 62.3535 94.1971 61.9208 95.3354L61.9207 95.3355C61.3011 96.9631 60.1486 97.8406 58.6748 97.8406C58.1297 97.8406 57.4964 97.647 56.8501 97.1571L56.85 97.1571C56.1003 96.5881 55.1862 95.4572 54.2067 94.0265C53.6839 93.2633 53.13 92.4062 52.5523 91.5124C51.2624 89.5167 49.8544 87.3383 48.4124 85.6149L48.4123 85.6148C47.8561 84.9488 47.3216 84.3481 46.794 83.8918C46.2654 83.4346 45.7569 83.1342 45.2542 83.0498C44.9419 82.9979 44.2853 83.0003 43.413 83.0374C42.547 83.0742 41.4857 83.1442 40.3758 83.2221L40.3757 83.2221C39.4465 83.2866 38.621 82.6278 38.4812 81.7054L45.9752 59.6195ZM45.9752 59.6195C45.5224 59.6625 45.1033 59.8755 44.8025 60.2158M45.9752 59.6195L45.9894 59.7689C45.5743 59.8082 45.1904 60.0035 44.9148 60.3152M44.9148 60.3152L44.8025 60.2158M44.9148 60.3152L44.8024 60.2158C44.8024 60.2158 44.8024 60.2158 44.8025 60.2158M44.9148 60.3152C40.8165 64.9467 38.3276 71.0351 38.3276 77.6994L44.8025 60.2158M44.8025 60.2158C40.6808 64.8737 38.1776 70.9971 38.1776 77.6994C38.1776 79.0605 38.2816 80.3986 38.4812 81.7053L44.8025 60.2158ZM50.5003 82.5611L50.5004 82.5612C52.2768 84.5062 54.0378 87.2247 55.6023 89.6399C55.7057 89.7995 55.8082 89.9578 55.9099 90.1145C56.9196 91.6685 57.8211 93.0427 58.5855 93.8882C58.5957 93.8993 58.6062 93.9105 58.6169 93.9218C58.634 93.8763 58.6487 93.8322 58.6594 93.7918L58.6596 93.7912C58.8998 92.8986 58.9008 91.6728 58.7312 90.3749C58.5751 89.1932 58.2696 87.9651 57.8317 86.8705L57.971 86.8148L57.8317 86.8705C57.7329 86.6235 57.6315 86.3736 57.5287 86.1206C56.7091 84.1021 55.808 81.8829 55.5278 79.3002C55.2118 76.3866 55.6854 73.0177 57.9248 68.9384M50.5003 82.5611L57.994 67.2764C57.4099 65.8868 55.8857 64.5415 53.5265 63.7212C51.7727 63.1108 49.5775 62.8073 46.9475 62.9829M50.5003 82.5611C48.976 80.8932 47.361 79.7712 45.8434 79.5186M50.5003 82.5611L45.8188 79.6665M57.9248 68.9384C57.9248 68.9384 57.9248 68.9384 57.9248 68.9384L58.0563 69.0106L57.9247 68.9386C57.9247 68.9385 57.9248 68.9385 57.9248 68.9384ZM57.9248 68.9384C58.1602 68.5079 58.1121 67.943 57.8557 67.3347L57.8557 67.3345C57.2934 65.9968 55.8115 64.6745 53.4772 63.8628L53.4772 63.8628C51.7595 63.2651 49.6063 62.9631 47.0216 63.1284M47.0216 63.1284C47.0352 63.1119 47.0489 63.0955 47.0626 63.0791L46.9475 62.9829M47.0216 63.1284C47.0002 63.1297 46.9789 63.1311 46.9575 63.1325L46.9475 62.9829M47.0216 63.1284C43.7357 67.0821 41.7589 72.1627 41.7589 77.6994C41.7589 78.3199 41.7841 78.935 41.8319 79.5432M46.9475 62.9829C43.6154 66.9696 41.6089 72.1032 41.6089 77.6994C41.6089 78.3737 41.6384 79.0414 41.6942 79.701M41.6942 79.701L41.6859 79.5512C41.7348 79.5485 41.7834 79.5458 41.8319 79.5432M41.6942 79.701C43.6105 79.5943 45.2118 79.5648 45.8188 79.6665M41.6942 79.701L41.8437 79.6883C41.8396 79.64 41.8357 79.5916 41.8319 79.5432M41.8319 79.5432C42.7347 79.4944 43.5637 79.4632 44.2458 79.4556C44.9604 79.4476 45.525 79.4652 45.8434 79.5186M45.8188 79.6665L45.8434 79.5186M45.8188 79.6665L45.8436 79.5186C45.8435 79.5186 45.8435 79.5186 45.8434 79.5186M73.5255 52.8567L73.5259 52.8569C82.8054 56.2047 89.6794 64.6078 90.813 74.7345L90.8131 74.7347C90.899 75.5114 90.4731 76.2564 89.7565 76.5717C87.1487 77.7217 85.3003 79.6496 83.7746 81.6587C82.9665 82.7231 82.2455 83.8093 81.5612 84.8405C81.5274 84.8914 81.4937 84.9421 81.4601 84.9928C80.7469 86.0669 80.0698 87.0785 79.376 87.9269C77.9511 89.6712 76.3885 90.7935 74.5198 90.9543M73.5255 52.8567L74.507 90.8048M73.5255 52.8567C73.1107 52.7083 72.6559 52.7153 72.2456 52.8819M73.5255 52.8567L72.2456 52.8819M74.5198 90.9543L74.507 90.8048M74.5198 90.9543C74.5199 90.9543 74.5199 90.9542 74.5199 90.9542L74.507 90.8048M74.5198 90.9543C73.2683 91.0625 71.8541 90.7478 70.2199 89.7669C68.8362 88.9365 68.0466 87.8322 67.7173 86.5544C67.3894 85.2818 67.5212 83.8503 67.953 82.3645L67.953 82.3645C68.518 80.4226 69.6259 78.3591 70.5616 76.6165C70.6238 76.5007 70.6852 76.3863 70.7457 76.2734M74.507 90.8048C73.2929 90.9098 71.9098 90.6063 70.2971 89.6383C67.5933 88.0157 67.2422 85.348 68.097 82.4064C68.6574 80.4804 69.7582 78.4301 70.6956 76.684C70.7571 76.5694 70.818 76.4561 70.8779 76.3442M70.7457 76.2734C70.7456 76.2734 70.7456 76.2734 70.7456 76.2735L70.8779 76.3442M70.7457 76.2734L70.8779 76.3442M70.7457 76.2734C70.783 76.2036 70.82 76.1346 70.8565 76.0665C71.0783 75.6528 71.2831 75.2707 71.4518 74.9246C71.649 74.52 71.7913 74.1754 71.8537 73.8965M70.8779 76.3442C70.9151 76.2747 70.952 76.2059 70.9884 76.1379C71.4682 75.2429 71.8766 74.4812 72.0001 73.9292M72.0001 73.9292L71.8537 73.8967C71.8537 73.8966 71.8537 73.8965 71.8537 73.8965M72.0001 73.9292L71.8537 73.8965M72.0001 73.9292C72.7246 70.669 71.193 69.2089 69.7031 67.7886L72.2456 52.8819M71.8537 73.8965C72.2495 72.115 71.9573 70.8971 71.3789 69.9292C70.9138 69.1508 70.2649 68.5319 69.6069 67.9043C69.435 67.7404 69.2624 67.5758 69.0924 67.4077L69.0923 67.4076C67.4735 65.8036 66.0685 64.0378 66.0685 61.1601C66.0685 57.8074 68.3815 54.4485 72.2456 52.8819V52.8819M77.8693 83.9266L77.8692 83.9267C77.1485 84.9889 76.4731 85.9217 75.7412 86.5909C75.2291 87.0579 74.7224 87.3691 74.124 87.3917C73.5367 87.413 72.8746 87.1839 72.0609 86.696C71.4644 86.3377 71.2032 85.8526 71.1338 85.2893C71.0631 84.7154 71.1912 84.0563 71.3927 83.3638L71.3927 83.3637C71.8639 81.7406 72.7902 80.0252 73.6065 78.5136C73.7072 78.327 73.8062 78.1436 73.9025 77.9638C74.6047 76.6545 75.1683 75.4897 75.3491 74.6737C75.8508 72.4162 75.6731 70.7076 75.1098 69.3081C74.5479 67.9121 73.6076 66.8376 72.6115 65.8414C72.3839 65.6139 72.1504 65.3957 71.9193 65.1796C70.7553 64.0916 69.6497 63.0583 69.6497 61.1601C69.6497 59.3159 70.9292 57.5214 72.9803 56.4795C80.2894 59.3793 85.749 65.9473 87.0829 73.9046C83.0983 76.1095 80.6446 79.7803 78.5706 82.8831C78.3324 83.2395 78.0992 83.5883 77.8693 83.9266Z" fill="#F4F4F4" stroke="#F4F4F4" stroke-width="0.3"/>
<path d="M35.0451 35.1925H53.0922C54.0803 35.1925 54.8829 34.3904 54.8829 33.4019C54.8829 32.4134 54.0803 31.6112 53.0922 31.6112H35.0451C34.0569 31.6112 33.2543 32.4134 33.2543 33.4019C33.2543 34.3904 34.0569 35.1925 35.0451 35.1925Z" fill="#F4F4F4" stroke="#F4F4F4" stroke-width="0.3"/>
<path d="M76.0609 35.1925H94.108C95.0962 35.1925 95.8988 34.3904 95.8988 33.4019C95.8988 32.4134 95.0962 31.6112 94.108 31.6112H76.0609C75.0728 31.6112 74.2702 32.4134 74.2702 33.4019C74.2702 34.3904 75.0728 35.1925 76.0609 35.1925Z" fill="#F4F4F4" stroke="#F4F4F4" stroke-width="0.3"/>
<path d="M35.0451 41.755H53.0922C54.0803 41.755 54.8829 40.9529 54.8829 39.9644C54.8829 38.9759 54.0803 38.1737 53.0922 38.1737H35.0451C34.0569 38.1737 33.2543 38.9759 33.2543 39.9644C33.2543 40.9529 34.0569 41.755 35.0451 41.755Z" fill="#F4F4F4" stroke="#F4F4F4" stroke-width="0.3"/>
<path d="M76.0609 41.755H94.108C95.0962 41.755 95.8988 40.9529 95.8988 39.9644C95.8988 38.9759 95.0962 38.1737 94.108 38.1737H76.0609C75.0728 38.1737 74.2702 38.9759 74.2702 39.9644C74.2702 40.9529 75.0728 41.755 76.0609 41.755Z" fill="#F4F4F4" stroke="#F4F4F4" stroke-width="0.3"/>
</svg>
