<svg width="25" height="23" viewBox="0 0 25 23" fill="none" xmlns="http://www.w3.org/2000/svg">
<path d="M12.5 22.1157C12.3529 22.1157 12.2049 22.0803 12.0689 22.0105C10.5492 21.2178 8.86056 20.8038 7.14654 20.8038C5.43253 20.8038 3.74387 21.2178 2.22416 22.0105C2.08215 22.084 1.9236 22.1199 1.76373 22.1145C1.60387 22.1092 1.44807 22.0628 1.3113 21.9799C1.17452 21.897 1.06137 21.7803 0.982696 21.641C0.904026 21.5017 0.862484 21.3446 0.862061 21.1846V3.49498C0.862053 3.3448 0.898373 3.19685 0.967923 3.06375C1.03747 2.93065 1.13819 2.81635 1.26147 2.7306C4.78172 0.281045 9.51137 0.281045 13.0325 2.7306C13.2821 2.9047 13.431 3.19053 13.431 3.49498V21.1846C13.431 21.4316 13.3329 21.6684 13.1583 21.843C12.9837 22.0176 12.7469 22.1157 12.5 22.1157ZM7.14654 18.9418C8.64551 18.9418 10.1454 19.2108 11.569 19.749V3.99773C10.2371 3.18487 8.70689 2.75482 7.14654 2.75482C5.58619 2.75482 4.05603 3.18487 2.72413 3.99773V19.749C4.13743 19.2151 5.63576 18.9416 7.14654 18.9418Z" fill="#93C572"/>
<path d="M23.2068 22.1157C23.0597 22.1157 22.9116 22.0803 22.7757 22.0105C21.256 21.2178 19.5673 20.8038 17.8533 20.8038C16.1393 20.8038 14.4507 21.2178 12.931 22.0105C12.7889 22.084 12.6304 22.1199 12.4705 22.1145C12.3107 22.1092 12.1549 22.0628 12.0181 21.9799C11.8813 21.897 11.7682 21.7803 11.6895 21.641C11.6108 21.5017 11.5693 21.3446 11.5688 21.1846V3.49498C11.5688 3.3448 11.6052 3.19685 11.6747 3.06375C11.7443 2.93065 11.845 2.81635 11.9683 2.7306C15.4885 0.281045 20.2182 0.281045 23.7393 2.7306C23.9888 2.9047 24.1378 3.19053 24.1378 3.49498V21.1846C24.1378 21.4316 24.0397 21.6684 23.8651 21.843C23.6905 22.0176 23.4537 22.1157 23.2068 22.1157ZM17.8533 18.9418C19.3523 18.9418 20.8522 19.2108 22.2757 19.749V3.99773C20.9438 3.18487 19.4137 2.75482 17.8533 2.75482C16.293 2.75482 14.7628 3.18487 13.4309 3.99773V19.749C14.8442 19.2151 16.3425 18.9416 17.8533 18.9418Z" fill="#93C572"/>
</svg>
