<svg width="21" height="21" viewBox="0 0 21 21" fill="none" xmlns="http://www.w3.org/2000/svg">
<path d="M13.7269 11.1602L11.5413 9.89884V5.29171C11.5413 5.01544 11.4316 4.75049 11.2362 4.55514C11.0409 4.35979 10.7759 4.25004 10.4997 4.25004C10.2234 4.25004 9.95846 4.35979 9.76311 4.55514C9.56776 4.75049 9.45801 5.01544 9.45801 5.29171V10.5C9.45796 10.6829 9.50607 10.8626 9.5975 11.021C9.68893 11.1794 9.82045 11.3109 9.97885 11.4023L12.6852 12.9648C12.8037 13.0333 12.9346 13.0778 13.0702 13.0957C13.2059 13.1136 13.3438 13.1046 13.476 13.0692C13.6082 13.0338 13.7322 12.9727 13.8407 12.8894C13.9493 12.8061 14.0404 12.7022 14.1088 12.5836C14.1773 12.4651 14.2217 12.3343 14.2395 12.1986C14.2573 12.0629 14.2482 11.925 14.2128 11.7928C14.1773 11.6606 14.1161 11.5367 14.0328 11.4282C13.9494 11.3196 13.8455 11.2286 13.7269 11.1602ZM10.4997 0.083374C8.43946 0.083374 6.4255 0.694301 4.71249 1.8389C2.99948 2.9835 1.66435 4.61036 0.875934 6.51376C0.0875212 8.41715 -0.118764 10.5116 0.283166 12.5322C0.685095 14.5529 1.67719 16.4089 3.13398 17.8657C4.59078 19.3225 6.44685 20.3146 8.46749 20.7166C10.4881 21.1185 12.5826 20.9122 14.486 20.1238C16.3894 19.3354 18.0162 18.0002 19.1608 16.2872C20.3054 14.5742 20.9163 12.5603 20.9163 10.5C20.9133 7.73831 19.8148 5.09058 17.862 3.13774C15.9091 1.1849 13.2614 0.0864455 10.4997 0.083374ZM10.4997 18.8334C8.8515 18.8334 7.24034 18.3446 5.86993 17.429C4.49952 16.5133 3.43141 15.2118 2.80068 13.6891C2.16995 12.1664 2.00493 10.4908 2.32647 8.87429C2.64801 7.25778 3.44168 5.77292 4.60712 4.60748C5.77256 3.44205 7.25742 2.64837 8.87393 2.32683C10.4904 2.00529 12.166 2.17031 13.6887 2.80104C15.2114 3.43178 16.5129 4.49988 17.4286 5.87029C18.3443 7.2407 18.833 8.85186 18.833 10.5C18.8305 12.7094 17.9517 14.8275 16.3894 16.3898C14.8272 17.9521 12.709 18.8308 10.4997 18.8334Z" fill="#93C572"/>
</svg>
