<svg width="27" height="19" viewBox="0 0 27 19" fill="none" xmlns="http://www.w3.org/2000/svg">
<path d="M13.5 11.75C13.3875 11.75 13.275 11.75 13.1625 11.6375L0.7875 7.13751C0.3375 7.02501 0 6.57501 0 6.12501C0 5.67501 0.3375 5.22501 0.7875 5.11251L13.1625 0.612512C13.3875 0.500012 13.725 0.500012 13.95 0.612512L26.325 5.11251C26.6625 5.22501 27 5.67501 27 6.12501C27 6.57501 26.6625 7.02501 26.2125 7.13751L13.8375 11.6375C13.725 11.75 13.6125 11.75 13.5 11.75ZM4.3875 6.12501L13.5 9.38751L22.6125 6.12501L13.5 2.86251L4.3875 6.12501Z" fill="#93C572"/>
<path d="M21.375 18.5H13.5C12.825 18.5 12.375 18.05 12.375 17.375C12.375 16.7 12.825 16.25 13.5 16.25H20.25C20.1375 13.325 19.4625 10.85 18.3375 9.05C18 8.4875 18.225 7.8125 18.675 7.475C19.2375 7.1375 19.9125 7.3625 20.25 7.8125C21.7125 10.175 22.5 13.4375 22.5 17.2625C22.5 18.05 22.05 18.5 21.375 18.5Z" fill="#93C572"/>
<path d="M13.5 18.5H5.625C4.95 18.5 4.5 18.05 4.5 17.375C4.5 13.55 5.2875 10.2875 6.75 7.925C7.0875 7.3625 7.7625 7.25 8.325 7.5875C8.8875 7.925 9 8.6 8.6625 9.1625C7.5375 10.9625 6.8625 13.4375 6.75 16.3625H13.5C14.175 16.3625 14.625 16.8125 14.625 17.4875C14.625 18.1625 14.175 18.5 13.5 18.5ZM24.75 18.5C24.075 18.5 23.625 18.05 23.625 17.375V6.125C23.625 5.45 24.075 5 24.75 5C25.425 5 25.875 5.45 25.875 6.125V17.375C25.875 18.05 25.425 18.5 24.75 18.5Z" fill="#93C572"/>
</svg>
